<?xml version="1.0" encoding="UTF-8"?>
<svg xmlns="http://www.w3.org/2000/svg" xmlns:xlink="http://www.w3.org/1999/xlink" width="439pt" height="429pt" viewBox="0 0 439 429" version="1.1">
<g id="surface171">
<path style=" stroke:none;fill-rule:nonzero;fill:rgb(0%,0%,100%);fill-opacity:1;" d="M 82.945312 29.957031 L 85.902344 29.957031 L 85.902344 39.203125 L 95.71875 29.957031 L 99.527344 29.957031 L 88.671875 40.152344 L 100.304688 51.828125 L 96.40625 51.828125 L 85.902344 41.296875 L 85.902344 51.828125 L 82.945312 51.828125 Z M 102.828125 35.421875 L 105.523438 35.421875 L 105.523438 51.828125 L 102.828125 51.828125 Z M 102.828125 29.035156 L 105.523438 29.035156 L 105.523438 32.449219 L 102.828125 32.449219 Z M 124.464844 41.925781 L 124.464844 51.828125 L 121.769531 51.828125 L 121.769531 42.015625 C 121.769531 40.464844 121.464844 39.300781 120.859375 38.527344 C 120.253906 37.757812 119.347656 37.375 118.136719 37.371094 C 116.679688 37.375 115.53125 37.835938 114.691406 38.761719 C 113.851562 39.691406 113.429688 40.957031 113.433594 42.554688 L 113.433594 51.828125 L 110.726562 51.828125 L 110.726562 35.421875 L 113.433594 35.421875 L 113.433594 37.96875 C 114.074219 36.988281 114.835938 36.25 115.710938 35.761719 C 116.585938 35.273438 117.59375 35.03125 118.738281 35.027344 C 120.617188 35.03125 122.042969 35.613281 123.011719 36.777344 C 123.980469 37.945312 124.464844 39.660156 124.464844 41.925781 Z M 140.625 37.914062 L 140.625 29.035156 L 143.320312 29.035156 L 143.320312 51.828125 L 140.625 51.828125 L 140.625 49.367188 C 140.054688 50.34375 139.339844 51.070312 138.476562 51.542969 C 137.609375 52.015625 136.570312 52.25 135.363281 52.253906 C 133.378906 52.25 131.765625 51.460938 130.523438 49.882812 C 129.273438 48.300781 128.652344 46.222656 128.65625 43.640625 C 128.652344 41.066406 129.273438 38.984375 130.523438 37.402344 C 131.765625 35.820312 133.378906 35.03125 135.363281 35.027344 C 136.570312 35.03125 137.609375 35.265625 138.476562 35.738281 C 139.339844 36.210938 140.054688 36.9375 140.625 37.914062 Z M 131.4375 43.640625 C 131.433594 45.625 131.84375 47.179688 132.660156 48.304688 C 133.472656 49.4375 134.59375 50 136.023438 49.996094 C 137.449219 50 138.570312 49.4375 139.394531 48.304688 C 140.210938 47.179688 140.621094 45.625 140.625 43.640625 C 140.621094 41.660156 140.210938 40.101562 139.394531 38.972656 C 138.570312 37.847656 137.449219 37.285156 136.023438 37.28125 C 134.59375 37.285156 133.472656 37.847656 132.660156 38.972656 C 131.84375 40.101562 131.433594 41.660156 131.4375 43.640625 Z M 148.828125 29.035156 L 151.523438 29.035156 L 151.523438 51.828125 L 148.828125 51.828125 Z M 163.652344 53.351562 C 162.886719 55.304688 162.144531 56.578125 161.425781 57.175781 C 160.699219 57.769531 159.734375 58.066406 158.527344 58.070312 L 156.375 58.070312 L 156.375 55.8125 L 157.953125 55.8125 C 158.695312 55.8125 159.273438 55.636719 159.683594 55.285156 C 160.089844 54.933594 160.542969 54.101562 161.046875 52.796875 L 161.53125 51.5625 L 154.894531 35.421875 L 157.75 35.421875 L 162.875 48.253906 L 168.003906 35.421875 L 170.859375 35.421875 Z M 191.183594 37.3125 C 189.734375 37.316406 188.59375 37.878906 187.753906 39.003906 C 186.914062 40.132812 186.492188 41.679688 186.496094 43.640625 C 186.492188 45.609375 186.910156 47.152344 187.746094 48.277344 C 188.578125 49.40625 189.722656 49.972656 191.183594 49.96875 C 192.613281 49.972656 193.753906 49.40625 194.597656 48.269531 C 195.4375 47.140625 195.855469 45.597656 195.859375 43.640625 C 195.855469 41.703125 195.4375 40.160156 194.597656 39.019531 C 193.753906 37.882812 192.613281 37.316406 191.183594 37.3125 Z M 191.183594 35.027344 C 193.523438 35.03125 195.367188 35.792969 196.707031 37.3125 C 198.042969 38.839844 198.710938 40.949219 198.714844 43.640625 C 198.710938 46.328125 198.042969 48.433594 196.707031 49.960938 C 195.367188 51.488281 193.523438 52.25 191.183594 52.253906 C 188.828125 52.25 186.988281 51.488281 185.65625 49.960938 C 184.320312 48.433594 183.652344 46.328125 183.65625 43.640625 C 183.652344 40.949219 184.320312 38.839844 185.65625 37.3125 C 186.988281 35.792969 188.828125 35.03125 191.183594 35.027344 Z M 216.464844 41.925781 L 216.464844 51.828125 L 213.769531 51.828125 L 213.769531 42.015625 C 213.769531 40.464844 213.464844 39.300781 212.859375 38.527344 C 212.253906 37.757812 211.347656 37.375 210.136719 37.371094 C 208.679688 37.375 207.53125 37.835938 206.691406 38.761719 C 205.851562 39.691406 205.429688 40.957031 205.433594 42.554688 L 205.433594 51.828125 L 202.726562 51.828125 L 202.726562 35.421875 L 205.433594 35.421875 L 205.433594 37.96875 C 206.074219 36.988281 206.835938 36.25 207.710938 35.761719 C 208.585938 35.273438 209.59375 35.03125 210.738281 35.027344 C 212.617188 35.03125 214.042969 35.613281 215.011719 36.777344 C 215.980469 37.945312 216.464844 39.660156 216.464844 41.925781 Z M 245.464844 41.925781 L 245.464844 51.828125 L 242.769531 51.828125 L 242.769531 42.015625 C 242.769531 40.464844 242.464844 39.300781 241.859375 38.527344 C 241.253906 37.757812 240.347656 37.375 239.136719 37.371094 C 237.679688 37.375 236.53125 37.835938 235.691406 38.761719 C 234.851562 39.691406 234.429688 40.957031 234.433594 42.554688 L 234.433594 51.828125 L 231.726562 51.828125 L 231.726562 29.035156 L 234.433594 29.035156 L 234.433594 37.96875 C 235.074219 36.988281 235.835938 36.25 236.710938 35.761719 C 237.585938 35.273438 238.59375 35.03125 239.738281 35.027344 C 241.617188 35.03125 243.042969 35.613281 244.011719 36.777344 C 244.980469 37.945312 245.464844 39.660156 245.464844 41.925781 Z M 257.183594 37.3125 C 255.734375 37.316406 254.59375 37.878906 253.753906 39.003906 C 252.914062 40.132812 252.492188 41.679688 252.496094 43.640625 C 252.492188 45.609375 252.910156 47.152344 253.746094 48.277344 C 254.578125 49.40625 255.722656 49.972656 257.183594 49.96875 C 258.613281 49.972656 259.753906 49.40625 260.597656 48.269531 C 261.4375 47.140625 261.855469 45.597656 261.859375 43.640625 C 261.855469 41.703125 261.4375 40.160156 260.597656 39.019531 C 259.753906 37.882812 258.613281 37.316406 257.183594 37.3125 Z M 257.183594 35.027344 C 259.523438 35.03125 261.367188 35.792969 262.707031 37.3125 C 264.042969 38.839844 264.710938 40.949219 264.714844 43.640625 C 264.710938 46.328125 264.042969 48.433594 262.707031 49.960938 C 261.367188 51.488281 259.523438 52.25 257.183594 52.253906 C 254.828125 52.25 252.988281 51.488281 251.65625 49.960938 C 250.320312 48.433594 249.652344 46.328125 249.65625 43.640625 C 249.652344 40.949219 250.320312 38.839844 251.65625 37.3125 C 252.988281 35.792969 254.828125 35.03125 257.183594 35.027344 Z M 268.828125 29.035156 L 271.523438 29.035156 L 271.523438 51.828125 L 268.828125 51.828125 Z M 287.625 37.914062 L 287.625 29.035156 L 290.320312 29.035156 L 290.320312 51.828125 L 287.625 51.828125 L 287.625 49.367188 C 287.054688 50.34375 286.339844 51.070312 285.476562 51.542969 C 284.609375 52.015625 283.570312 52.25 282.363281 52.253906 C 280.378906 52.25 278.765625 51.460938 277.523438 49.882812 C 276.273438 48.300781 275.652344 46.222656 275.65625 43.640625 C 275.652344 41.066406 276.273438 38.984375 277.523438 37.402344 C 278.765625 35.820312 280.378906 35.03125 282.363281 35.027344 C 283.570312 35.03125 284.609375 35.265625 285.476562 35.738281 C 286.339844 36.210938 287.054688 36.9375 287.625 37.914062 Z M 278.4375 43.640625 C 278.433594 45.625 278.84375 47.179688 279.660156 48.304688 C 280.472656 49.4375 281.59375 50 283.023438 49.996094 C 284.449219 50 285.570312 49.4375 286.394531 48.304688 C 287.210938 47.179688 287.621094 45.625 287.625 43.640625 C 287.621094 41.660156 287.210938 40.101562 286.394531 38.972656 C 285.570312 37.847656 284.449219 37.285156 283.023438 37.28125 C 281.59375 37.285156 280.472656 37.847656 279.660156 38.972656 C 278.84375 40.101562 278.433594 41.660156 278.4375 43.640625 Z M 0 23.980469 "/>
<path style=" stroke:none;fill-rule:nonzero;fill:rgb(0%,0%,100%);fill-opacity:1;" d="M 7.03125 77.140625 L 10.121094 77.140625 L 10.121094 80.859375 L 7.03125 80.859375 Z M 7.03125 65.347656 L 10.121094 65.347656 L 10.121094 69.066406 L 7.03125 69.066406 Z M 26.8125 80.40625 L 26.8125 77.710938 C 27.550781 78.066406 28.300781 78.332031 29.066406 78.515625 C 29.824219 78.703125 30.574219 78.796875 31.308594 78.792969 C 33.261719 78.796875 34.75 78.140625 35.78125 76.824219 C 36.808594 75.511719 37.398438 73.515625 37.546875 70.839844 C 36.980469 71.683594 36.261719 72.328125 35.394531 72.773438 C 34.523438 73.222656 33.5625 73.449219 32.507812 73.445312 C 30.316406 73.449219 28.585938 72.785156 27.316406 71.460938 C 26.039062 70.140625 25.402344 68.332031 25.40625 66.035156 C 25.402344 63.789062 26.066406 61.988281 27.398438 60.628906 C 28.722656 59.273438 30.488281 58.59375 32.699219 58.59375 C 35.222656 58.59375 37.15625 59.566406 38.492188 61.503906 C 39.824219 63.445312 40.488281 66.257812 40.492188 69.945312 C 40.488281 73.394531 39.671875 76.148438 38.039062 78.203125 C 36.402344 80.257812 34.203125 81.28125 31.441406 81.285156 C 30.695312 81.28125 29.941406 81.207031 29.183594 81.0625 C 28.417969 80.917969 27.628906 80.703125 26.8125 80.40625 Z M 32.699219 71.132812 C 34.023438 71.132812 35.078125 70.679688 35.855469 69.769531 C 36.632812 68.863281 37.019531 67.617188 37.023438 66.035156 C 37.019531 64.464844 36.632812 63.222656 35.855469 62.308594 C 35.078125 61.394531 34.023438 60.9375 32.699219 60.9375 C 31.367188 60.9375 30.316406 61.394531 29.542969 62.308594 C 28.765625 63.222656 28.378906 64.464844 28.378906 66.035156 C 28.378906 67.617188 28.765625 68.863281 29.542969 69.769531 C 30.316406 70.679688 31.367188 71.132812 32.699219 71.132812 Z M 45.8125 80.40625 L 45.8125 77.710938 C 46.550781 78.066406 47.300781 78.332031 48.066406 78.515625 C 48.824219 78.703125 49.574219 78.796875 50.308594 78.792969 C 52.261719 78.796875 53.75 78.140625 54.78125 76.824219 C 55.808594 75.511719 56.398438 73.515625 56.546875 70.839844 C 55.980469 71.683594 55.261719 72.328125 54.394531 72.773438 C 53.523438 73.222656 52.5625 73.449219 51.507812 73.445312 C 49.316406 73.449219 47.585938 72.785156 46.316406 71.460938 C 45.039062 70.140625 44.402344 68.332031 44.40625 66.035156 C 44.402344 63.789062 45.066406 61.988281 46.398438 60.628906 C 47.722656 59.273438 49.488281 58.59375 51.699219 58.59375 C 54.222656 58.59375 56.15625 59.566406 57.492188 61.503906 C 58.824219 63.445312 59.488281 66.257812 59.492188 69.945312 C 59.488281 73.394531 58.671875 76.148438 57.039062 78.203125 C 55.402344 80.257812 53.203125 81.28125 50.441406 81.285156 C 49.695312 81.28125 48.941406 81.207031 48.183594 81.0625 C 47.417969 80.917969 46.628906 80.703125 45.8125 80.40625 Z M 51.699219 71.132812 C 53.023438 71.132812 54.078125 70.679688 54.855469 69.769531 C 55.632812 68.863281 56.019531 67.617188 56.023438 66.035156 C 56.019531 64.464844 55.632812 63.222656 54.855469 62.308594 C 54.078125 61.394531 53.023438 60.9375 51.699219 60.9375 C 50.367188 60.9375 49.316406 61.394531 48.542969 62.308594 C 47.765625 63.222656 47.378906 64.464844 47.378906 66.035156 C 47.378906 67.617188 47.765625 68.863281 48.542969 69.769531 C 49.316406 70.679688 50.367188 71.132812 51.699219 71.132812 Z M 64.8125 80.40625 L 64.8125 77.710938 C 65.550781 78.066406 66.300781 78.332031 67.066406 78.515625 C 67.824219 78.703125 68.574219 78.796875 69.308594 78.792969 C 71.261719 78.796875 72.75 78.140625 73.78125 76.824219 C 74.808594 75.511719 75.398438 73.515625 75.546875 70.839844 C 74.980469 71.683594 74.261719 72.328125 73.394531 72.773438 C 72.523438 73.222656 71.5625 73.449219 70.507812 73.445312 C 68.316406 73.449219 66.585938 72.785156 65.316406 71.460938 C 64.039062 70.140625 63.402344 68.332031 63.40625 66.035156 C 63.402344 63.789062 64.066406 61.988281 65.398438 60.628906 C 66.722656 59.273438 68.488281 58.59375 70.699219 58.59375 C 73.222656 58.59375 75.15625 59.566406 76.492188 61.503906 C 77.824219 63.445312 78.488281 66.257812 78.492188 69.945312 C 78.488281 73.394531 77.671875 76.148438 76.039062 78.203125 C 74.402344 80.257812 72.203125 81.28125 69.441406 81.285156 C 68.695312 81.28125 67.941406 81.207031 67.183594 81.0625 C 66.417969 80.917969 65.628906 80.703125 64.8125 80.40625 Z M 70.699219 71.132812 C 72.023438 71.132812 73.078125 70.679688 73.855469 69.769531 C 74.632812 68.863281 75.019531 67.617188 75.023438 66.035156 C 75.019531 64.464844 74.632812 63.222656 73.855469 62.308594 C 73.078125 61.394531 72.023438 60.9375 70.699219 60.9375 C 69.367188 60.9375 68.316406 61.394531 67.542969 62.308594 C 66.765625 63.222656 66.378906 64.464844 66.378906 66.035156 C 66.378906 67.617188 66.765625 68.863281 67.542969 69.769531 C 68.316406 70.679688 69.367188 71.132812 70.699219 71.132812 Z M 83.8125 80.40625 L 83.8125 77.710938 C 84.550781 78.066406 85.300781 78.332031 86.066406 78.515625 C 86.824219 78.703125 87.574219 78.796875 88.308594 78.792969 C 90.261719 78.796875 91.75 78.140625 92.78125 76.824219 C 93.808594 75.511719 94.398438 73.515625 94.546875 70.839844 C 93.980469 71.683594 93.261719 72.328125 92.394531 72.773438 C 91.523438 73.222656 90.5625 73.449219 89.507812 73.445312 C 87.316406 73.449219 85.585938 72.785156 84.316406 71.460938 C 83.039062 70.140625 82.402344 68.332031 82.40625 66.035156 C 82.402344 63.789062 83.066406 61.988281 84.398438 60.628906 C 85.722656 59.273438 87.488281 58.59375 89.699219 58.59375 C 92.222656 58.59375 94.15625 59.566406 95.492188 61.503906 C 96.824219 63.445312 97.488281 66.257812 97.492188 69.945312 C 97.488281 73.394531 96.671875 76.148438 95.039062 78.203125 C 93.402344 80.257812 91.203125 81.28125 88.441406 81.285156 C 87.695312 81.28125 86.941406 81.207031 86.183594 81.0625 C 85.417969 80.917969 84.628906 80.703125 83.8125 80.40625 Z M 89.699219 71.132812 C 91.023438 71.132812 92.078125 70.679688 92.855469 69.769531 C 93.632812 68.863281 94.019531 67.617188 94.023438 66.035156 C 94.019531 64.464844 93.632812 63.222656 92.855469 62.308594 C 92.078125 61.394531 91.023438 60.9375 89.699219 60.9375 C 88.367188 60.9375 87.316406 61.394531 86.542969 62.308594 C 85.765625 63.222656 85.378906 64.464844 85.378906 66.035156 C 85.378906 67.617188 85.765625 68.863281 86.542969 69.769531 C 87.316406 70.679688 88.367188 71.132812 89.699219 71.132812 Z M 109.050781 60.9375 C 107.523438 60.9375 106.378906 61.6875 105.617188 63.1875 C 104.847656 64.6875 104.464844 66.941406 104.46875 69.945312 C 104.464844 72.949219 104.847656 75.199219 105.617188 76.695312 C 106.378906 78.195312 107.523438 78.945312 109.050781 78.941406 C 110.582031 78.945312 111.734375 78.195312 112.5 76.695312 C 113.265625 75.199219 113.648438 72.949219 113.652344 69.945312 C 113.648438 66.941406 113.265625 64.6875 112.5 63.1875 C 111.734375 61.6875 110.582031 60.9375 109.050781 60.9375 Z M 109.050781 58.59375 C 111.496094 58.59375 113.371094 59.566406 114.667969 61.503906 C 115.960938 63.445312 116.605469 66.257812 116.609375 69.945312 C 116.605469 73.628906 115.960938 76.441406 114.667969 78.378906 C 113.371094 80.316406 111.496094 81.28125 109.050781 81.285156 C 106.597656 81.28125 104.726562 80.316406 103.433594 78.378906 C 102.136719 76.441406 101.488281 73.628906 101.492188 69.945312 C 101.488281 66.257812 102.136719 63.445312 103.433594 61.503906 C 104.726562 59.566406 106.597656 58.59375 109.050781 58.59375 Z M 128.050781 60.9375 C 126.523438 60.9375 125.378906 61.6875 124.617188 63.1875 C 123.847656 64.6875 123.464844 66.941406 123.46875 69.945312 C 123.464844 72.949219 123.847656 75.199219 124.617188 76.695312 C 125.378906 78.195312 126.523438 78.945312 128.050781 78.941406 C 129.582031 78.945312 130.734375 78.195312 131.5 76.695312 C 132.265625 75.199219 132.648438 72.949219 132.652344 69.945312 C 132.648438 66.941406 132.265625 64.6875 131.5 63.1875 C 130.734375 61.6875 129.582031 60.9375 128.050781 60.9375 Z M 128.050781 58.59375 C 130.496094 58.59375 132.371094 59.566406 133.667969 61.503906 C 134.960938 63.445312 135.605469 66.257812 135.609375 69.945312 C 135.605469 73.628906 134.960938 76.441406 133.667969 78.378906 C 132.371094 80.316406 130.496094 81.28125 128.050781 81.285156 C 125.597656 81.28125 123.726562 80.316406 122.433594 78.378906 C 121.136719 76.441406 120.488281 73.628906 120.492188 69.945312 C 120.488281 66.257812 121.136719 63.445312 122.433594 61.503906 C 123.726562 59.566406 125.597656 58.59375 128.050781 58.59375 Z M 147.050781 60.9375 C 145.523438 60.9375 144.378906 61.6875 143.617188 63.1875 C 142.847656 64.6875 142.464844 66.941406 142.46875 69.945312 C 142.464844 72.949219 142.847656 75.199219 143.617188 76.695312 C 144.378906 78.195312 145.523438 78.945312 147.050781 78.941406 C 148.582031 78.945312 149.734375 78.195312 150.5 76.695312 C 151.265625 75.199219 151.648438 72.949219 151.652344 69.945312 C 151.648438 66.941406 151.265625 64.6875 150.5 63.1875 C 149.734375 61.6875 148.582031 60.9375 147.050781 60.9375 Z M 147.050781 58.59375 C 149.496094 58.59375 151.371094 59.566406 152.667969 61.503906 C 153.960938 63.445312 154.605469 66.257812 154.609375 69.945312 C 154.605469 73.628906 153.960938 76.441406 152.667969 78.378906 C 151.371094 80.316406 149.496094 81.28125 147.050781 81.285156 C 144.597656 81.28125 142.726562 80.316406 141.433594 78.378906 C 140.136719 76.441406 139.488281 73.628906 139.492188 69.945312 C 139.488281 66.257812 140.136719 63.445312 141.433594 61.503906 C 142.726562 59.566406 144.597656 58.59375 147.050781 58.59375 Z M 166.050781 60.9375 C 164.523438 60.9375 163.378906 61.6875 162.617188 63.1875 C 161.847656 64.6875 161.464844 66.941406 161.46875 69.945312 C 161.464844 72.949219 161.847656 75.199219 162.617188 76.695312 C 163.378906 78.195312 164.523438 78.945312 166.050781 78.941406 C 167.582031 78.945312 168.734375 78.195312 169.5 76.695312 C 170.265625 75.199219 170.648438 72.949219 170.652344 69.945312 C 170.648438 66.941406 170.265625 64.6875 169.5 63.1875 C 168.734375 61.6875 167.582031 60.9375 166.050781 60.9375 Z M 166.050781 58.59375 C 168.496094 58.59375 170.371094 59.566406 171.667969 61.503906 C 172.960938 63.445312 173.605469 66.257812 173.609375 69.945312 C 173.605469 73.628906 172.960938 76.441406 171.667969 78.378906 C 170.371094 80.316406 168.496094 81.28125 166.050781 81.285156 C 163.597656 81.28125 161.726562 80.316406 160.433594 78.378906 C 159.136719 76.441406 158.488281 73.628906 158.492188 69.945312 C 158.488281 66.257812 159.136719 63.445312 160.433594 61.503906 C 161.726562 59.566406 163.597656 58.59375 166.050781 58.59375 Z M 185.050781 60.9375 C 183.523438 60.9375 182.378906 61.6875 181.617188 63.1875 C 180.847656 64.6875 180.464844 66.941406 180.46875 69.945312 C 180.464844 72.949219 180.847656 75.199219 181.617188 76.695312 C 182.378906 78.195312 183.523438 78.945312 185.050781 78.941406 C 186.582031 78.945312 187.734375 78.195312 188.5 76.695312 C 189.265625 75.199219 189.648438 72.949219 189.652344 69.945312 C 189.648438 66.941406 189.265625 64.6875 188.5 63.1875 C 187.734375 61.6875 186.582031 60.9375 185.050781 60.9375 Z M 185.050781 58.59375 C 187.496094 58.59375 189.371094 59.566406 190.667969 61.503906 C 191.960938 63.445312 192.605469 66.257812 192.609375 69.945312 C 192.605469 73.628906 191.960938 76.441406 190.667969 78.378906 C 189.371094 80.316406 187.496094 81.28125 185.050781 81.285156 C 182.597656 81.28125 180.726562 80.316406 179.433594 78.378906 C 178.136719 76.441406 177.488281 73.628906 177.492188 69.945312 C 177.488281 66.257812 178.136719 63.445312 179.433594 61.503906 C 180.726562 59.566406 182.597656 58.59375 185.050781 58.59375 Z M 204.050781 60.9375 C 202.523438 60.9375 201.378906 61.6875 200.617188 63.1875 C 199.847656 64.6875 199.464844 66.941406 199.46875 69.945312 C 199.464844 72.949219 199.847656 75.199219 200.617188 76.695312 C 201.378906 78.195312 202.523438 78.945312 204.050781 78.941406 C 205.582031 78.945312 206.734375 78.195312 207.5 76.695312 C 208.265625 75.199219 208.648438 72.949219 208.652344 69.945312 C 208.648438 66.941406 208.265625 64.6875 207.5 63.1875 C 206.734375 61.6875 205.582031 60.9375 204.050781 60.9375 Z M 204.050781 58.59375 C 206.496094 58.59375 208.371094 59.566406 209.667969 61.503906 C 210.960938 63.445312 211.605469 66.257812 211.609375 69.945312 C 211.605469 73.628906 210.960938 76.441406 209.667969 78.378906 C 208.371094 80.316406 206.496094 81.28125 204.050781 81.285156 C 201.597656 81.28125 199.726562 80.316406 198.433594 78.378906 C 197.136719 76.441406 196.488281 73.628906 196.492188 69.945312 C 196.488281 66.257812 197.136719 63.445312 198.433594 61.503906 C 199.726562 59.566406 201.597656 58.59375 204.050781 58.59375 Z M 223.050781 60.9375 C 221.523438 60.9375 220.378906 61.6875 219.617188 63.1875 C 218.847656 64.6875 218.464844 66.941406 218.46875 69.945312 C 218.464844 72.949219 218.847656 75.199219 219.617188 76.695312 C 220.378906 78.195312 221.523438 78.945312 223.050781 78.941406 C 224.582031 78.945312 225.734375 78.195312 226.5 76.695312 C 227.265625 75.199219 227.648438 72.949219 227.652344 69.945312 C 227.648438 66.941406 227.265625 64.6875 226.5 63.1875 C 225.734375 61.6875 224.582031 60.9375 223.050781 60.9375 Z M 223.050781 58.59375 C 225.496094 58.59375 227.371094 59.566406 228.667969 61.503906 C 229.960938 63.445312 230.605469 66.257812 230.609375 69.945312 C 230.605469 73.628906 229.960938 76.441406 228.667969 78.378906 C 227.371094 80.316406 225.496094 81.28125 223.050781 81.285156 C 220.597656 81.28125 218.726562 80.316406 217.433594 78.378906 C 216.136719 76.441406 215.488281 73.628906 215.492188 69.945312 C 215.488281 66.257812 216.136719 63.445312 217.433594 61.503906 C 218.726562 59.566406 220.597656 58.59375 223.050781 58.59375 Z M 242.050781 60.9375 C 240.523438 60.9375 239.378906 61.6875 238.617188 63.1875 C 237.847656 64.6875 237.464844 66.941406 237.46875 69.945312 C 237.464844 72.949219 237.847656 75.199219 238.617188 76.695312 C 239.378906 78.195312 240.523438 78.945312 242.050781 78.941406 C 243.582031 78.945312 244.734375 78.195312 245.5 76.695312 C 246.265625 75.199219 246.648438 72.949219 246.652344 69.945312 C 246.648438 66.941406 246.265625 64.6875 245.5 63.1875 C 244.734375 61.6875 243.582031 60.9375 242.050781 60.9375 Z M 242.050781 58.59375 C 244.496094 58.59375 246.371094 59.566406 247.667969 61.503906 C 248.960938 63.445312 249.605469 66.257812 249.609375 69.945312 C 249.605469 73.628906 248.960938 76.441406 247.667969 78.378906 C 246.371094 80.316406 244.496094 81.28125 242.050781 81.285156 C 239.597656 81.28125 237.726562 80.316406 236.433594 78.378906 C 235.136719 76.441406 234.488281 73.628906 234.492188 69.945312 C 234.488281 66.257812 235.136719 63.445312 236.433594 61.503906 C 237.726562 59.566406 239.597656 58.59375 242.050781 58.59375 Z M 261.050781 60.9375 C 259.523438 60.9375 258.378906 61.6875 257.617188 63.1875 C 256.847656 64.6875 256.464844 66.941406 256.46875 69.945312 C 256.464844 72.949219 256.847656 75.199219 257.617188 76.695312 C 258.378906 78.195312 259.523438 78.945312 261.050781 78.941406 C 262.582031 78.945312 263.734375 78.195312 264.5 76.695312 C 265.265625 75.199219 265.648438 72.949219 265.652344 69.945312 C 265.648438 66.941406 265.265625 64.6875 264.5 63.1875 C 263.734375 61.6875 262.582031 60.9375 261.050781 60.9375 Z M 261.050781 58.59375 C 263.496094 58.59375 265.371094 59.566406 266.667969 61.503906 C 267.960938 63.445312 268.605469 66.257812 268.609375 69.945312 C 268.605469 73.628906 267.960938 76.441406 266.667969 78.378906 C 265.371094 80.316406 263.496094 81.28125 261.050781 81.285156 C 258.597656 81.28125 256.726562 80.316406 255.433594 78.378906 C 254.136719 76.441406 253.488281 73.628906 253.492188 69.945312 C 253.488281 66.257812 254.136719 63.445312 255.433594 61.503906 C 256.726562 59.566406 258.597656 58.59375 261.050781 58.59375 Z M 280.050781 60.9375 C 278.523438 60.9375 277.378906 61.6875 276.617188 63.1875 C 275.847656 64.6875 275.464844 66.941406 275.46875 69.945312 C 275.464844 72.949219 275.847656 75.199219 276.617188 76.695312 C 277.378906 78.195312 278.523438 78.945312 280.050781 78.941406 C 281.582031 78.945312 282.734375 78.195312 283.5 76.695312 C 284.265625 75.199219 284.648438 72.949219 284.652344 69.945312 C 284.648438 66.941406 284.265625 64.6875 283.5 63.1875 C 282.734375 61.6875 281.582031 60.9375 280.050781 60.9375 Z M 280.050781 58.59375 C 282.496094 58.59375 284.371094 59.566406 285.667969 61.503906 C 286.960938 63.445312 287.605469 66.257812 287.609375 69.945312 C 287.605469 73.628906 286.960938 76.441406 285.667969 78.378906 C 284.371094 80.316406 282.496094 81.28125 280.050781 81.285156 C 277.597656 81.28125 275.726562 80.316406 274.433594 78.378906 C 273.136719 76.441406 272.488281 73.628906 272.492188 69.945312 C 272.488281 66.257812 273.136719 63.445312 274.433594 61.503906 C 275.726562 59.566406 277.597656 58.59375 280.050781 58.59375 Z M 299.050781 60.9375 C 297.523438 60.9375 296.378906 61.6875 295.617188 63.1875 C 294.847656 64.6875 294.464844 66.941406 294.46875 69.945312 C 294.464844 72.949219 294.847656 75.199219 295.617188 76.695312 C 296.378906 78.195312 297.523438 78.945312 299.050781 78.941406 C 300.582031 78.945312 301.734375 78.195312 302.5 76.695312 C 303.265625 75.199219 303.648438 72.949219 303.652344 69.945312 C 303.648438 66.941406 303.265625 64.6875 302.5 63.1875 C 301.734375 61.6875 300.582031 60.9375 299.050781 60.9375 Z M 299.050781 58.59375 C 301.496094 58.59375 303.371094 59.566406 304.667969 61.503906 C 305.960938 63.445312 306.605469 66.257812 306.609375 69.945312 C 306.605469 73.628906 305.960938 76.441406 304.667969 78.378906 C 303.371094 80.316406 301.496094 81.28125 299.050781 81.285156 C 296.597656 81.28125 294.726562 80.316406 293.433594 78.378906 C 292.136719 76.441406 291.488281 73.628906 291.492188 69.945312 C 291.488281 66.257812 292.136719 63.445312 293.433594 61.503906 C 294.726562 59.566406 296.597656 58.59375 299.050781 58.59375 Z M 318.050781 60.9375 C 316.523438 60.9375 315.378906 61.6875 314.617188 63.1875 C 313.847656 64.6875 313.464844 66.941406 313.46875 69.945312 C 313.464844 72.949219 313.847656 75.199219 314.617188 76.695312 C 315.378906 78.195312 316.523438 78.945312 318.050781 78.941406 C 319.582031 78.945312 320.734375 78.195312 321.5 76.695312 C 322.265625 75.199219 322.648438 72.949219 322.652344 69.945312 C 322.648438 66.941406 322.265625 64.6875 321.5 63.1875 C 320.734375 61.6875 319.582031 60.9375 318.050781 60.9375 Z M 318.050781 58.59375 C 320.496094 58.59375 322.371094 59.566406 323.667969 61.503906 C 324.960938 63.445312 325.605469 66.257812 325.609375 69.945312 C 325.605469 73.628906 324.960938 76.441406 323.667969 78.378906 C 322.371094 80.316406 320.496094 81.28125 318.050781 81.285156 C 315.597656 81.28125 313.726562 80.316406 312.433594 78.378906 C 311.136719 76.441406 310.488281 73.628906 310.492188 69.945312 C 310.488281 66.257812 311.136719 63.445312 312.433594 61.503906 C 313.726562 59.566406 315.597656 58.59375 318.050781 58.59375 Z M 337.050781 60.9375 C 335.523438 60.9375 334.378906 61.6875 333.617188 63.1875 C 332.847656 64.6875 332.464844 66.941406 332.46875 69.945312 C 332.464844 72.949219 332.847656 75.199219 333.617188 76.695312 C 334.378906 78.195312 335.523438 78.945312 337.050781 78.941406 C 338.582031 78.945312 339.734375 78.195312 340.5 76.695312 C 341.265625 75.199219 341.648438 72.949219 341.652344 69.945312 C 341.648438 66.941406 341.265625 64.6875 340.5 63.1875 C 339.734375 61.6875 338.582031 60.9375 337.050781 60.9375 Z M 337.050781 58.59375 C 339.496094 58.59375 341.371094 59.566406 342.667969 61.503906 C 343.960938 63.445312 344.605469 66.257812 344.609375 69.945312 C 344.605469 73.628906 343.960938 76.441406 342.667969 78.378906 C 341.371094 80.316406 339.496094 81.28125 337.050781 81.285156 C 334.597656 81.28125 332.726562 80.316406 331.433594 78.378906 C 330.136719 76.441406 329.488281 73.628906 329.492188 69.945312 C 329.488281 66.257812 330.136719 63.445312 331.433594 61.503906 C 332.726562 59.566406 334.597656 58.59375 337.050781 58.59375 Z M 356.050781 60.9375 C 354.523438 60.9375 353.378906 61.6875 352.617188 63.1875 C 351.847656 64.6875 351.464844 66.941406 351.46875 69.945312 C 351.464844 72.949219 351.847656 75.199219 352.617188 76.695312 C 353.378906 78.195312 354.523438 78.945312 356.050781 78.941406 C 357.582031 78.945312 358.734375 78.195312 359.5 76.695312 C 360.265625 75.199219 360.648438 72.949219 360.652344 69.945312 C 360.648438 66.941406 360.265625 64.6875 359.5 63.1875 C 358.734375 61.6875 357.582031 60.9375 356.050781 60.9375 Z M 356.050781 58.59375 C 358.496094 58.59375 360.371094 59.566406 361.667969 61.503906 C 362.960938 63.445312 363.605469 66.257812 363.609375 69.945312 C 363.605469 73.628906 362.960938 76.441406 361.667969 78.378906 C 360.371094 80.316406 358.496094 81.28125 356.050781 81.285156 C 353.597656 81.28125 351.726562 80.316406 350.433594 78.378906 C 349.136719 76.441406 348.488281 73.628906 348.492188 69.945312 C 348.488281 66.257812 349.136719 63.445312 350.433594 61.503906 C 351.726562 59.566406 353.597656 58.59375 356.050781 58.59375 Z M 375.050781 60.9375 C 373.523438 60.9375 372.378906 61.6875 371.617188 63.1875 C 370.847656 64.6875 370.464844 66.941406 370.46875 69.945312 C 370.464844 72.949219 370.847656 75.199219 371.617188 76.695312 C 372.378906 78.195312 373.523438 78.945312 375.050781 78.941406 C 376.582031 78.945312 377.734375 78.195312 378.5 76.695312 C 379.265625 75.199219 379.648438 72.949219 379.652344 69.945312 C 379.648438 66.941406 379.265625 64.6875 378.5 63.1875 C 377.734375 61.6875 376.582031 60.9375 375.050781 60.9375 Z M 375.050781 58.59375 C 377.496094 58.59375 379.371094 59.566406 380.667969 61.503906 C 381.960938 63.445312 382.605469 66.257812 382.609375 69.945312 C 382.605469 73.628906 381.960938 76.441406 380.667969 78.378906 C 379.371094 80.316406 377.496094 81.28125 375.050781 81.285156 C 372.597656 81.28125 370.726562 80.316406 369.433594 78.378906 C 368.136719 76.441406 367.488281 73.628906 367.492188 69.945312 C 367.488281 66.257812 368.136719 63.445312 369.433594 61.503906 C 370.726562 59.566406 372.597656 58.59375 375.050781 58.59375 Z M 394.050781 60.9375 C 392.523438 60.9375 391.378906 61.6875 390.617188 63.1875 C 389.847656 64.6875 389.464844 66.941406 389.46875 69.945312 C 389.464844 72.949219 389.847656 75.199219 390.617188 76.695312 C 391.378906 78.195312 392.523438 78.945312 394.050781 78.941406 C 395.582031 78.945312 396.734375 78.195312 397.5 76.695312 C 398.265625 75.199219 398.648438 72.949219 398.652344 69.945312 C 398.648438 66.941406 398.265625 64.6875 397.5 63.1875 C 396.734375 61.6875 395.582031 60.9375 394.050781 60.9375 Z M 394.050781 58.59375 C 396.496094 58.59375 398.371094 59.566406 399.667969 61.503906 C 400.960938 63.445312 401.605469 66.257812 401.609375 69.945312 C 401.605469 73.628906 400.960938 76.441406 399.667969 78.378906 C 398.371094 80.316406 396.496094 81.28125 394.050781 81.285156 C 391.597656 81.28125 389.726562 80.316406 388.433594 78.378906 C 387.136719 76.441406 386.488281 73.628906 386.492188 69.945312 C 386.488281 66.257812 387.136719 63.445312 388.433594 61.503906 C 389.726562 59.566406 391.597656 58.59375 394.050781 58.59375 Z M 413.050781 60.9375 C 411.523438 60.9375 410.378906 61.6875 409.617188 63.1875 C 408.847656 64.6875 408.464844 66.941406 408.46875 69.945312 C 408.464844 72.949219 408.847656 75.199219 409.617188 76.695312 C 410.378906 78.195312 411.523438 78.945312 413.050781 78.941406 C 414.582031 78.945312 415.734375 78.195312 416.5 76.695312 C 417.265625 75.199219 417.648438 72.949219 417.652344 69.945312 C 417.648438 66.941406 417.265625 64.6875 416.5 63.1875 C 415.734375 61.6875 414.582031 60.9375 413.050781 60.9375 Z M 413.050781 58.59375 C 415.496094 58.59375 417.371094 59.566406 418.667969 61.503906 C 419.960938 63.445312 420.605469 66.257812 420.609375 69.945312 C 420.605469 73.628906 419.960938 76.441406 418.667969 78.378906 C 417.371094 80.316406 415.496094 81.28125 413.050781 81.285156 C 410.597656 81.28125 408.726562 80.316406 407.433594 78.378906 C 406.136719 76.441406 405.488281 73.628906 405.492188 69.945312 C 405.488281 66.257812 406.136719 63.445312 407.433594 61.503906 C 408.726562 59.566406 410.597656 58.59375 413.050781 58.59375 Z M 432.050781 60.9375 C 430.523438 60.9375 429.378906 61.6875 428.617188 63.1875 C 427.847656 64.6875 427.464844 66.941406 427.46875 69.945312 C 427.464844 72.949219 427.847656 75.199219 428.617188 76.695312 C 429.378906 78.195312 430.523438 78.945312 432.050781 78.941406 C 433.582031 78.945312 434.734375 78.195312 435.5 76.695312 C 436.265625 75.199219 436.648438 72.949219 436.652344 69.945312 C 436.648438 66.941406 436.265625 64.6875 435.5 63.1875 C 434.734375 61.6875 433.582031 60.9375 432.050781 60.9375 Z M 432.050781 58.59375 C 434.496094 58.59375 436.371094 59.566406 437.667969 61.503906 C 438.960938 63.445312 439.605469 66.257812 439.609375 69.945312 C 439.605469 73.628906 438.960938 76.441406 437.667969 78.378906 C 436.371094 80.316406 434.496094 81.28125 432.050781 81.285156 C 429.597656 81.28125 427.726562 80.316406 426.433594 78.378906 C 425.136719 76.441406 424.488281 73.628906 424.492188 69.945312 C 424.488281 66.257812 425.136719 63.445312 426.433594 61.503906 C 427.726562 59.566406 429.597656 58.59375 432.050781 58.59375 Z M 3.515625 53.011719 "/>
<path style=" stroke:none;fill-rule:nonzero;fill:rgb(0%,0%,100%);fill-opacity:1;" d="M 96.054688 117.773438 L 96.054688 120.660156 C 94.929688 120.128906 93.867188 119.726562 92.875 119.460938 C 91.875 119.195312 90.914062 119.0625 89.992188 119.0625 C 88.375 119.0625 87.132812 119.375 86.261719 120 C 85.386719 120.625 84.949219 121.515625 84.953125 122.667969 C 84.949219 123.636719 85.242188 124.367188 85.824219 124.859375 C 86.402344 125.355469 87.5 125.753906 89.125 126.050781 L 90.914062 126.417969 C 93.117188 126.839844 94.746094 127.578125 95.796875 128.636719 C 96.847656 129.695312 97.371094 131.113281 97.375 132.890625 C 97.371094 135.011719 96.660156 136.621094 95.242188 137.710938 C 93.816406 138.804688 91.734375 139.347656 88.992188 139.351562 C 87.957031 139.347656 86.855469 139.230469 85.691406 139 C 84.519531 138.765625 83.3125 138.421875 82.066406 137.957031 L 82.066406 134.910156 C 83.265625 135.589844 84.441406 136.097656 85.59375 136.4375 C 86.746094 136.78125 87.878906 136.953125 88.992188 136.949219 C 90.679688 136.953125 91.984375 136.621094 92.902344 135.953125 C 93.820312 135.292969 94.277344 134.34375 94.28125 133.109375 C 94.277344 132.039062 93.949219 131.199219 93.292969 130.59375 C 92.632812 129.988281 91.550781 129.535156 90.046875 129.230469 L 88.246094 128.878906 C 86.035156 128.441406 84.441406 127.753906 83.457031 126.8125 C 82.46875 125.878906 81.972656 124.574219 81.976562 122.902344 C 81.972656 120.96875 82.65625 119.445312 84.019531 118.332031 C 85.378906 117.21875 87.253906 116.660156 89.652344 116.660156 C 90.675781 116.660156 91.722656 116.753906 92.785156 116.9375 C 93.847656 117.125 94.9375 117.402344 96.054688 117.773438 Z M 104.492188 117.863281 L 104.492188 122.519531 L 110.046875 122.519531 L 110.046875 124.613281 L 104.492188 124.613281 L 104.492188 133.519531 C 104.488281 134.859375 104.671875 135.71875 105.042969 136.097656 C 105.40625 136.480469 106.152344 136.671875 107.277344 136.667969 L 110.046875 136.667969 L 110.046875 138.925781 L 107.277344 138.925781 C 105.195312 138.925781 103.757812 138.539062 102.96875 137.761719 C 102.171875 136.988281 101.777344 135.574219 101.78125 133.519531 L 101.78125 124.613281 L 99.804688 124.613281 L 99.804688 122.519531 L 101.78125 122.519531 L 101.78125 117.863281 Z M 121.28125 130.679688 C 119.101562 130.683594 117.59375 130.929688 116.753906 131.425781 C 115.914062 131.925781 115.492188 132.777344 115.496094 133.972656 C 115.492188 134.933594 115.808594 135.691406 116.441406 136.253906 C 117.070312 136.816406 117.925781 137.097656 119.011719 137.09375 C 120.503906 137.097656 121.703125 136.570312 122.609375 135.507812 C 123.507812 134.453125 123.960938 133.042969 123.964844 131.277344 L 123.964844 130.679688 Z M 126.660156 129.566406 L 126.660156 138.925781 L 123.964844 138.925781 L 123.964844 136.433594 C 123.34375 137.433594 122.578125 138.167969 121.664062 138.640625 C 120.746094 139.113281 119.621094 139.347656 118.296875 139.351562 C 116.609375 139.347656 115.273438 138.878906 114.285156 137.9375 C 113.292969 136.996094 112.796875 135.734375 112.800781 134.152344 C 112.796875 132.308594 113.414062 130.917969 114.652344 129.976562 C 115.886719 129.042969 117.730469 128.574219 120.183594 128.570312 L 123.964844 128.570312 L 123.964844 128.304688 C 123.960938 127.066406 123.550781 126.109375 122.738281 125.429688 C 121.917969 124.753906 120.773438 124.414062 119.304688 124.410156 C 118.363281 124.414062 117.453125 124.523438 116.566406 124.746094 C 115.675781 124.972656 114.820312 125.3125 114.003906 125.757812 L 114.003906 123.265625 C 114.988281 122.886719 115.945312 122.601562 116.875 122.410156 C 117.800781 122.222656 118.703125 122.128906 119.585938 122.125 C 121.953125 122.128906 123.726562 122.742188 124.902344 123.972656 C 126.070312 125.203125 126.65625 127.070312 126.660156 129.566406 Z M 131.726562 116.132812 L 134.433594 116.132812 L 134.433594 129.59375 L 142.476562 122.519531 L 145.917969 122.519531 L 137.21875 130.195312 L 146.285156 138.925781 L 142.769531 138.925781 L 134.433594 130.914062 L 134.433594 138.925781 L 131.726562 138.925781 Z M 161.859375 130.050781 L 161.859375 131.367188 L 149.46875 131.367188 C 149.582031 133.226562 150.140625 134.640625 151.144531 135.609375 C 152.144531 136.582031 153.539062 137.070312 155.328125 137.066406 C 156.359375 137.070312 157.363281 136.941406 158.335938 136.6875 C 159.308594 136.433594 160.273438 136.054688 161.230469 135.542969 L 161.230469 138.089844 C 160.261719 138.503906 159.269531 138.8125 158.257812 139.027344 C 157.238281 139.238281 156.207031 139.347656 155.164062 139.351562 C 152.546875 139.347656 150.476562 138.589844 148.949219 137.066406 C 147.417969 135.546875 146.652344 133.484375 146.65625 130.882812 C 146.652344 128.199219 147.378906 126.070312 148.832031 124.492188 C 150.28125 122.917969 152.234375 122.128906 154.695312 122.125 C 156.902344 122.128906 158.648438 122.839844 159.933594 124.257812 C 161.214844 125.679688 161.855469 127.609375 161.859375 130.050781 Z M 159.164062 129.257812 C 159.140625 127.785156 158.730469 126.609375 157.925781 125.730469 C 157.121094 124.851562 156.054688 124.414062 154.726562 124.410156 C 153.21875 124.414062 152.011719 124.835938 151.113281 125.683594 C 150.207031 126.535156 149.6875 127.734375 149.554688 129.273438 Z M 176.625 125.011719 L 176.625 116.132812 L 179.320312 116.132812 L 179.320312 138.925781 L 176.625 138.925781 L 176.625 136.464844 C 176.054688 137.441406 175.339844 138.167969 174.476562 138.640625 C 173.609375 139.113281 172.570312 139.347656 171.363281 139.351562 C 169.378906 139.347656 167.765625 138.558594 166.523438 136.980469 C 165.273438 135.398438 164.652344 133.320312 164.65625 130.738281 C 164.652344 128.164062 165.273438 126.082031 166.523438 124.5 C 167.765625 122.917969 169.378906 122.128906 171.363281 122.125 C 172.570312 122.128906 173.609375 122.363281 174.476562 122.835938 C 175.339844 123.308594 176.054688 124.035156 176.625 125.011719 Z M 167.4375 130.738281 C 167.433594 132.722656 167.84375 134.277344 168.660156 135.402344 C 169.472656 136.535156 170.59375 137.097656 172.023438 137.09375 C 173.449219 137.097656 174.570312 136.535156 175.394531 135.402344 C 176.210938 134.277344 176.621094 132.722656 176.625 130.738281 C 176.621094 128.757812 176.210938 127.199219 175.394531 126.070312 C 174.570312 124.945312 173.449219 124.382812 172.023438 124.378906 C 170.59375 124.382812 169.472656 124.945312 168.660156 126.070312 C 167.84375 127.199219 167.433594 128.757812 167.4375 130.738281 Z M 194.945312 117.054688 L 197.902344 117.054688 L 197.902344 126.300781 L 207.71875 117.054688 L 211.527344 117.054688 L 200.671875 127.25 L 212.304688 138.925781 L 208.40625 138.925781 L 197.902344 128.394531 L 197.902344 138.925781 L 194.945312 138.925781 Z M 214.828125 122.519531 L 217.523438 122.519531 L 217.523438 138.925781 L 214.828125 138.925781 Z M 214.828125 116.132812 L 217.523438 116.132812 L 217.523438 119.546875 L 214.828125 119.546875 Z M 236.464844 129.023438 L 236.464844 138.925781 L 233.769531 138.925781 L 233.769531 129.113281 C 233.769531 127.5625 233.464844 126.398438 232.859375 125.625 C 232.253906 124.855469 231.347656 124.472656 230.136719 124.46875 C 228.679688 124.472656 227.53125 124.933594 226.691406 125.859375 C 225.851562 126.789062 225.429688 128.054688 225.433594 129.652344 L 225.433594 138.925781 L 222.726562 138.925781 L 222.726562 122.519531 L 225.433594 122.519531 L 225.433594 125.066406 C 226.074219 124.085938 226.835938 123.347656 227.710938 122.859375 C 228.585938 122.371094 229.59375 122.128906 230.738281 122.125 C 232.617188 122.128906 234.042969 122.710938 235.011719 123.875 C 235.980469 125.042969 236.464844 126.757812 236.464844 129.023438 Z M 252.625 125.011719 L 252.625 116.132812 L 255.320312 116.132812 L 255.320312 138.925781 L 252.625 138.925781 L 252.625 136.464844 C 252.054688 137.441406 251.339844 138.167969 250.476562 138.640625 C 249.609375 139.113281 248.570312 139.347656 247.363281 139.351562 C 245.378906 139.347656 243.765625 138.558594 242.523438 136.980469 C 241.273438 135.398438 240.652344 133.320312 240.65625 130.738281 C 240.652344 128.164062 241.273438 126.082031 242.523438 124.5 C 243.765625 122.917969 245.378906 122.128906 247.363281 122.125 C 248.570312 122.128906 249.609375 122.363281 250.476562 122.835938 C 251.339844 123.308594 252.054688 124.035156 252.625 125.011719 Z M 243.4375 130.738281 C 243.433594 132.722656 243.84375 134.277344 244.660156 135.402344 C 245.472656 136.535156 246.59375 137.097656 248.023438 137.09375 C 249.449219 137.097656 250.570312 136.535156 251.394531 135.402344 C 252.210938 134.277344 252.621094 132.722656 252.625 130.738281 C 252.621094 128.757812 252.210938 127.199219 251.394531 126.070312 C 250.570312 124.945312 249.449219 124.382812 248.023438 124.378906 C 246.59375 124.382812 245.472656 124.945312 244.660156 126.070312 C 243.84375 127.199219 243.433594 128.757812 243.4375 130.738281 Z M 260.828125 116.132812 L 263.523438 116.132812 L 263.523438 138.925781 L 260.828125 138.925781 Z M 275.652344 140.449219 C 274.886719 142.402344 274.144531 143.675781 273.425781 144.273438 C 272.699219 144.867188 271.734375 145.164062 270.527344 145.167969 L 268.375 145.167969 L 268.375 142.910156 L 269.953125 142.910156 C 270.695312 142.910156 271.273438 142.734375 271.683594 142.382812 C 272.089844 142.03125 272.542969 141.199219 273.046875 139.894531 L 273.53125 138.660156 L 266.894531 122.519531 L 269.75 122.519531 L 274.875 135.351562 L 280.003906 122.519531 L 282.859375 122.519531 Z M 285.515625 135.207031 L 288.605469 135.207031 L 288.605469 138.925781 L 285.515625 138.925781 Z M 285.515625 123.414062 L 288.605469 123.414062 L 288.605469 127.132812 L 285.515625 127.132812 Z M 311.535156 119.003906 C 310.007812 119.003906 308.863281 119.753906 308.101562 121.253906 C 307.332031 122.753906 306.949219 125.007812 306.953125 128.011719 C 306.949219 131.015625 307.332031 133.265625 308.101562 134.761719 C 308.863281 136.261719 310.007812 137.011719 311.535156 137.007812 C 313.066406 137.011719 314.21875 136.261719 314.984375 134.761719 C 315.75 133.265625 316.132812 131.015625 316.136719 128.011719 C 316.132812 125.007812 315.75 122.753906 314.984375 121.253906 C 314.21875 119.753906 313.066406 119.003906 311.535156 119.003906 Z M 311.535156 116.660156 C 313.980469 116.660156 315.855469 117.632812 317.152344 119.570312 C 318.445312 121.511719 319.089844 124.324219 319.09375 128.011719 C 319.089844 131.695312 318.445312 134.507812 317.152344 136.445312 C 315.855469 138.382812 313.980469 139.347656 311.535156 139.351562 C 309.082031 139.347656 307.210938 138.382812 305.917969 136.445312 C 304.621094 134.507812 303.972656 131.695312 303.976562 128.011719 C 303.972656 124.324219 304.621094 121.511719 305.917969 119.570312 C 307.210938 117.632812 309.082031 116.660156 311.535156 116.660156 Z M 0 111.078125 "/>
<path style=" stroke:none;fill-rule:nonzero;fill:rgb(0%,0%,100%);fill-opacity:1;" d="M 93.316406 186.738281 C 93.945312 186.957031 94.5625 187.417969 95.167969 188.117188 C 95.765625 188.824219 96.367188 189.789062 96.976562 191.015625 L 99.980469 196.992188 L 96.800781 196.992188 L 94.003906 191.382812 C 93.28125 189.921875 92.578125 188.949219 91.902344 188.46875 C 91.21875 187.992188 90.292969 187.753906 89.125 187.75 L 85.902344 187.75 L 85.902344 196.992188 L 82.945312 196.992188 L 82.945312 175.121094 L 89.625 175.121094 C 92.121094 175.125 93.984375 175.648438 95.21875 176.691406 C 96.445312 177.738281 97.0625 179.316406 97.066406 181.421875 C 97.0625 182.800781 96.742188 183.941406 96.105469 184.847656 C 95.464844 185.757812 94.535156 186.386719 93.316406 186.738281 Z M 85.902344 177.554688 L 85.902344 185.316406 L 89.625 185.316406 C 91.046875 185.320312 92.121094 184.992188 92.851562 184.328125 C 93.578125 183.671875 93.945312 182.703125 93.945312 181.421875 C 93.945312 180.144531 93.578125 179.179688 92.851562 178.527344 C 92.121094 177.882812 91.046875 177.558594 89.625 177.554688 Z M 115.859375 188.117188 L 115.859375 189.433594 L 103.46875 189.433594 C 103.582031 191.292969 104.140625 192.707031 105.144531 193.675781 C 106.144531 194.648438 107.539062 195.136719 109.328125 195.132812 C 110.359375 195.136719 111.363281 195.007812 112.335938 194.753906 C 113.308594 194.5 114.273438 194.121094 115.230469 193.609375 L 115.230469 196.15625 C 114.261719 196.570312 113.269531 196.878906 112.257812 197.09375 C 111.238281 197.304688 110.207031 197.414062 109.164062 197.417969 C 106.546875 197.414062 104.476562 196.65625 102.949219 195.132812 C 101.417969 193.613281 100.652344 191.550781 100.65625 188.949219 C 100.652344 186.265625 101.378906 184.136719 102.832031 182.558594 C 104.28125 180.984375 106.234375 180.195312 108.695312 180.191406 C 110.902344 180.195312 112.648438 180.90625 113.933594 182.324219 C 115.214844 183.746094 115.855469 185.675781 115.859375 188.117188 Z M 113.164062 187.324219 C 113.140625 185.851562 112.730469 184.675781 111.925781 183.796875 C 111.121094 182.917969 110.054688 182.480469 108.726562 182.476562 C 107.21875 182.480469 106.011719 182.902344 105.113281 183.75 C 104.207031 184.601562 103.6875 185.800781 103.554688 187.339844 Z M 118.257812 180.585938 L 120.953125 180.585938 L 124.324219 193.390625 L 127.679688 180.585938 L 130.859375 180.585938 L 134.226562 193.390625 L 137.582031 180.585938 L 140.277344 180.585938 L 135.984375 196.992188 L 132.804688 196.992188 L 129.273438 183.546875 L 125.730469 196.992188 L 122.550781 196.992188 Z M 152.28125 188.746094 C 150.101562 188.75 148.59375 188.996094 147.753906 189.492188 C 146.914062 189.992188 146.492188 190.84375 146.496094 192.039062 C 146.492188 193 146.808594 193.757812 147.441406 194.320312 C 148.070312 194.882812 148.925781 195.164062 150.011719 195.160156 C 151.503906 195.164062 152.703125 194.636719 153.609375 193.574219 C 154.507812 192.519531 154.960938 191.109375 154.964844 189.34375 L 154.964844 188.746094 Z M 157.660156 187.632812 L 157.660156 196.992188 L 154.964844 196.992188 L 154.964844 194.5 C 154.34375 195.5 153.578125 196.234375 152.664062 196.707031 C 151.746094 197.179688 150.621094 197.414062 149.296875 197.417969 C 147.609375 197.414062 146.273438 196.945312 145.285156 196.003906 C 144.292969 195.0625 143.796875 193.800781 143.800781 192.21875 C 143.796875 190.375 144.414062 188.984375 145.652344 188.042969 C 146.886719 187.109375 148.730469 186.640625 151.183594 186.636719 L 154.964844 186.636719 L 154.964844 186.371094 C 154.960938 185.132812 154.550781 184.175781 153.738281 183.496094 C 152.917969 182.820312 151.773438 182.480469 150.304688 182.476562 C 149.363281 182.480469 148.453125 182.589844 147.566406 182.8125 C 146.675781 183.039062 145.820312 183.378906 145.003906 183.824219 L 145.003906 181.332031 C 145.988281 180.953125 146.945312 180.667969 147.875 180.476562 C 148.800781 180.289062 149.703125 180.195312 150.585938 180.191406 C 152.953125 180.195312 154.726562 180.808594 155.902344 182.039062 C 157.070312 183.269531 157.65625 185.136719 157.660156 187.632812 Z M 172.335938 183.105469 C 172.027344 182.933594 171.699219 182.804688 171.34375 182.71875 C 170.988281 182.636719 170.59375 182.597656 170.164062 182.59375 C 168.640625 182.597656 167.472656 183.09375 166.65625 184.082031 C 165.839844 185.074219 165.429688 186.496094 165.433594 188.351562 L 165.433594 196.992188 L 162.726562 196.992188 L 162.726562 180.585938 L 165.433594 180.585938 L 165.433594 183.132812 C 165.996094 182.140625 166.734375 181.402344 167.644531 180.917969 C 168.550781 180.4375 169.65625 180.195312 170.957031 180.191406 C 171.140625 180.195312 171.34375 180.207031 171.570312 180.230469 C 171.792969 180.257812 172.042969 180.292969 172.320312 180.335938 Z M 185.625 183.078125 L 185.625 174.199219 L 188.320312 174.199219 L 188.320312 196.992188 L 185.625 196.992188 L 185.625 194.53125 C 185.054688 195.507812 184.339844 196.234375 183.476562 196.707031 C 182.609375 197.179688 181.570312 197.414062 180.363281 197.417969 C 178.378906 197.414062 176.765625 196.625 175.523438 195.046875 C 174.273438 193.464844 173.652344 191.386719 173.65625 188.804688 C 173.652344 186.230469 174.273438 184.148438 175.523438 182.566406 C 176.765625 180.984375 178.378906 180.195312 180.363281 180.191406 C 181.570312 180.195312 182.609375 180.429688 183.476562 180.902344 C 184.339844 181.375 185.054688 182.101562 185.625 183.078125 Z M 176.4375 188.804688 C 176.433594 190.789062 176.84375 192.34375 177.660156 193.46875 C 178.472656 194.601562 179.59375 195.164062 181.023438 195.160156 C 182.449219 195.164062 183.570312 194.601562 184.394531 193.46875 C 185.210938 192.34375 185.621094 190.789062 185.625 188.804688 C 185.621094 186.824219 185.210938 185.265625 184.394531 184.136719 C 183.570312 183.011719 182.449219 182.449219 181.023438 182.445312 C 179.59375 182.449219 178.472656 183.011719 177.660156 184.136719 C 176.84375 185.265625 176.433594 186.824219 176.4375 188.804688 Z M 203.945312 175.121094 L 216.511719 175.121094 L 216.511719 177.613281 L 206.902344 177.613281 L 206.902344 184.058594 L 215.574219 184.058594 L 215.574219 186.546875 L 206.902344 186.546875 L 206.902344 196.992188 L 203.945312 196.992188 Z M 228.335938 183.105469 C 228.027344 182.933594 227.699219 182.804688 227.34375 182.71875 C 226.988281 182.636719 226.59375 182.597656 226.164062 182.59375 C 224.640625 182.597656 223.472656 183.09375 222.65625 184.082031 C 221.839844 185.074219 221.429688 186.496094 221.433594 188.351562 L 221.433594 196.992188 L 218.726562 196.992188 L 218.726562 180.585938 L 221.433594 180.585938 L 221.433594 183.132812 C 221.996094 182.140625 222.734375 181.402344 223.644531 180.917969 C 224.550781 180.4375 225.65625 180.195312 226.957031 180.191406 C 227.140625 180.195312 227.34375 180.207031 227.570312 180.230469 C 227.792969 180.257812 228.042969 180.292969 228.320312 180.335938 Z M 237.183594 182.476562 C 235.734375 182.480469 234.59375 183.042969 233.753906 184.167969 C 232.914062 185.296875 232.492188 186.84375 232.496094 188.804688 C 232.492188 190.773438 232.910156 192.316406 233.746094 193.441406 C 234.578125 194.570312 235.722656 195.136719 237.183594 195.132812 C 238.613281 195.136719 239.753906 194.570312 240.597656 193.433594 C 241.4375 192.304688 241.855469 190.761719 241.859375 188.804688 C 241.855469 186.867188 241.4375 185.324219 240.597656 184.183594 C 239.753906 183.046875 238.613281 182.480469 237.183594 182.476562 Z M 237.183594 180.191406 C 239.523438 180.195312 241.367188 180.957031 242.707031 182.476562 C 244.042969 184.003906 244.710938 186.113281 244.714844 188.804688 C 244.710938 191.492188 244.042969 193.597656 242.707031 195.125 C 241.367188 196.652344 239.523438 197.414062 237.183594 197.417969 C 234.828125 197.414062 232.988281 196.652344 231.65625 195.125 C 230.320312 193.597656 229.652344 191.492188 229.65625 188.804688 C 229.652344 186.113281 230.320312 184.003906 231.65625 182.476562 C 232.988281 180.957031 234.828125 180.195312 237.183594 180.191406 Z M 261.601562 183.734375 C 262.269531 182.527344 263.074219 181.632812 264.015625 181.054688 C 264.949219 180.480469 266.054688 180.195312 267.328125 180.191406 C 269.035156 180.195312 270.351562 180.792969 271.28125 181.988281 C 272.207031 183.1875 272.671875 184.886719 272.675781 187.089844 L 272.675781 196.992188 L 269.964844 196.992188 L 269.964844 187.179688 C 269.964844 185.609375 269.683594 184.441406 269.128906 183.679688 C 268.570312 182.917969 267.722656 182.539062 266.582031 182.535156 C 265.179688 182.539062 264.074219 183 263.269531 183.925781 C 262.457031 184.855469 262.054688 186.121094 262.054688 187.71875 L 262.054688 196.992188 L 259.34375 196.992188 L 259.34375 187.179688 C 259.339844 185.597656 259.0625 184.429688 258.507812 183.671875 C 257.949219 182.917969 257.089844 182.539062 255.929688 182.535156 C 254.550781 182.539062 253.457031 183.003906 252.648438 183.933594 C 251.835938 184.867188 251.429688 186.128906 251.433594 187.71875 L 251.433594 196.992188 L 248.726562 196.992188 L 248.726562 180.585938 L 251.433594 180.585938 L 251.433594 183.132812 C 252.046875 182.132812 252.785156 181.390625 253.648438 180.910156 C 254.503906 180.433594 255.523438 180.195312 256.707031 180.191406 C 257.894531 180.195312 258.910156 180.496094 259.746094 181.101562 C 260.582031 181.707031 261.199219 182.585938 261.601562 183.734375 Z M 301.054688 175.839844 L 301.054688 178.726562 C 299.929688 178.195312 298.867188 177.792969 297.875 177.527344 C 296.875 177.261719 295.914062 177.128906 294.992188 177.128906 C 293.375 177.128906 292.132812 177.441406 291.261719 178.066406 C 290.386719 178.691406 289.949219 179.582031 289.953125 180.734375 C 289.949219 181.703125 290.242188 182.433594 290.824219 182.925781 C 291.402344 183.421875 292.5 183.820312 294.125 184.117188 L 295.914062 184.484375 C 298.117188 184.90625 299.746094 185.644531 300.796875 186.703125 C 301.847656 187.761719 302.371094 189.179688 302.375 190.957031 C 302.371094 193.078125 301.660156 194.6875 300.242188 195.777344 C 298.816406 196.871094 296.734375 197.414062 293.992188 197.417969 C 292.957031 197.414062 291.855469 197.296875 290.691406 197.066406 C 289.519531 196.832031 288.3125 196.488281 287.066406 196.023438 L 287.066406 192.976562 C 288.265625 193.65625 289.441406 194.164062 290.59375 194.503906 C 291.746094 194.847656 292.878906 195.019531 293.992188 195.015625 C 295.679688 195.019531 296.984375 194.6875 297.902344 194.019531 C 298.820312 193.359375 299.277344 192.410156 299.28125 191.175781 C 299.277344 190.105469 298.949219 189.265625 298.292969 188.660156 C 297.632812 188.054688 296.550781 187.601562 295.046875 187.296875 L 293.246094 186.945312 C 291.035156 186.507812 289.441406 185.820312 288.457031 184.878906 C 287.46875 183.945312 286.972656 182.640625 286.976562 180.96875 C 286.972656 179.035156 287.65625 177.511719 289.019531 176.398438 C 290.378906 175.285156 292.253906 174.726562 294.652344 174.726562 C 295.675781 174.726562 296.722656 174.820312 297.785156 175.003906 C 298.847656 175.191406 299.9375 175.46875 301.054688 175.839844 Z M 309.492188 175.929688 L 309.492188 180.585938 L 315.046875 180.585938 L 315.046875 182.679688 L 309.492188 182.679688 L 309.492188 191.585938 C 309.488281 192.925781 309.671875 193.785156 310.042969 194.164062 C 310.40625 194.546875 311.152344 194.738281 312.277344 194.734375 L 315.046875 194.734375 L 315.046875 196.992188 L 312.277344 196.992188 C 310.195312 196.992188 308.757812 196.605469 307.96875 195.828125 C 307.171875 195.054688 306.777344 193.640625 306.78125 191.585938 L 306.78125 182.679688 L 304.804688 182.679688 L 304.804688 180.585938 L 306.78125 180.585938 L 306.78125 175.929688 Z M 326.28125 188.746094 C 324.101562 188.75 322.59375 188.996094 321.753906 189.492188 C 320.914062 189.992188 320.492188 190.84375 320.496094 192.039062 C 320.492188 193 320.808594 193.757812 321.441406 194.320312 C 322.070312 194.882812 322.925781 195.164062 324.011719 195.160156 C 325.503906 195.164062 326.703125 194.636719 327.609375 193.574219 C 328.507812 192.519531 328.960938 191.109375 328.964844 189.34375 L 328.964844 188.746094 Z M 331.660156 187.632812 L 331.660156 196.992188 L 328.964844 196.992188 L 328.964844 194.5 C 328.34375 195.5 327.578125 196.234375 326.664062 196.707031 C 325.746094 197.179688 324.621094 197.414062 323.296875 197.417969 C 321.609375 197.414062 320.273438 196.945312 319.285156 196.003906 C 318.292969 195.0625 317.796875 193.800781 317.800781 192.21875 C 317.796875 190.375 318.414062 188.984375 319.652344 188.042969 C 320.886719 187.109375 322.730469 186.640625 325.183594 186.636719 L 328.964844 186.636719 L 328.964844 186.371094 C 328.960938 185.132812 328.550781 184.175781 327.738281 183.496094 C 326.917969 182.820312 325.773438 182.480469 324.304688 182.476562 C 323.363281 182.480469 322.453125 182.589844 321.566406 182.8125 C 320.675781 183.039062 319.820312 183.378906 319.003906 183.824219 L 319.003906 181.332031 C 319.988281 180.953125 320.945312 180.667969 321.875 180.476562 C 322.800781 180.289062 323.703125 180.195312 324.585938 180.191406 C 326.953125 180.195312 328.726562 180.808594 329.902344 182.039062 C 331.070312 183.269531 331.65625 185.136719 331.660156 187.632812 Z M 336.726562 174.199219 L 339.433594 174.199219 L 339.433594 187.660156 L 347.476562 180.585938 L 350.917969 180.585938 L 342.21875 188.261719 L 351.285156 196.992188 L 347.769531 196.992188 L 339.433594 188.980469 L 339.433594 196.992188 L 336.726562 196.992188 Z M 353.828125 180.585938 L 356.523438 180.585938 L 356.523438 196.992188 L 353.828125 196.992188 Z M 353.828125 174.199219 L 356.523438 174.199219 L 356.523438 177.613281 L 353.828125 177.613281 Z M 375.464844 187.089844 L 375.464844 196.992188 L 372.769531 196.992188 L 372.769531 187.179688 C 372.769531 185.628906 372.464844 184.464844 371.859375 183.691406 C 371.253906 182.921875 370.347656 182.539062 369.136719 182.535156 C 367.679688 182.539062 366.53125 183 365.691406 183.925781 C 364.851562 184.855469 364.429688 186.121094 364.433594 187.71875 L 364.433594 196.992188 L 361.726562 196.992188 L 361.726562 180.585938 L 364.433594 180.585938 L 364.433594 183.132812 C 365.074219 182.152344 365.835938 181.414062 366.710938 180.925781 C 367.585938 180.4375 368.59375 180.195312 369.738281 180.191406 C 371.617188 180.195312 373.042969 180.777344 374.011719 181.941406 C 374.980469 183.109375 375.464844 184.824219 375.464844 187.089844 Z M 391.625 188.597656 C 391.621094 186.648438 391.21875 185.136719 390.414062 184.058594 C 389.605469 182.988281 388.476562 182.449219 387.023438 182.445312 C 385.578125 182.449219 384.449219 182.988281 383.644531 184.058594 C 382.835938 185.136719 382.433594 186.648438 382.4375 188.597656 C 382.433594 190.546875 382.835938 192.054688 383.644531 193.125 C 384.449219 194.199219 385.578125 194.738281 387.023438 194.734375 C 388.476562 194.738281 389.605469 194.199219 390.414062 193.125 C 391.21875 192.054688 391.621094 190.546875 391.625 188.597656 Z M 394.320312 194.957031 C 394.316406 197.75 393.695312 199.824219 392.457031 201.1875 C 391.214844 202.550781 389.316406 203.230469 386.757812 203.234375 C 385.808594 203.230469 384.914062 203.160156 384.078125 203.019531 C 383.234375 202.875 382.421875 202.65625 381.632812 202.367188 L 381.632812 199.746094 C 382.421875 200.175781 383.203125 200.492188 383.976562 200.699219 C 384.746094 200.902344 385.53125 201.003906 386.335938 201.007812 C 388.097656 201.003906 389.421875 200.542969 390.304688 199.621094 C 391.183594 198.695312 391.621094 197.304688 391.625 195.4375 L 391.625 194.105469 C 391.0625 195.074219 390.351562 195.796875 389.484375 196.273438 C 388.613281 196.753906 387.570312 196.992188 386.363281 196.992188 C 384.347656 196.992188 382.726562 196.226562 381.5 194.691406 C 380.265625 193.160156 379.652344 191.128906 379.65625 188.597656 C 379.652344 186.0625 380.265625 184.027344 381.5 182.492188 C 382.726562 180.960938 384.347656 180.195312 386.363281 180.191406 C 387.570312 180.195312 388.613281 180.433594 389.484375 180.910156 C 390.351562 181.390625 391.0625 182.113281 391.625 183.078125 L 391.625 180.585938 L 394.320312 180.585938 Z M 400.515625 193.273438 L 403.605469 193.273438 L 403.605469 196.992188 L 400.515625 196.992188 Z M 400.515625 181.480469 L 403.605469 181.480469 L 403.605469 185.199219 L 400.515625 185.199219 Z M 426.535156 177.070312 C 425.007812 177.070312 423.863281 177.820312 423.101562 179.320312 C 422.332031 180.820312 421.949219 183.074219 421.953125 186.078125 C 421.949219 189.082031 422.332031 191.332031 423.101562 192.828125 C 423.863281 194.328125 425.007812 195.078125 426.535156 195.074219 C 428.066406 195.078125 429.21875 194.328125 429.984375 192.828125 C 430.75 191.332031 431.132812 189.082031 431.136719 186.078125 C 431.132812 183.074219 430.75 180.820312 429.984375 179.320312 C 429.21875 177.820312 428.066406 177.070312 426.535156 177.070312 Z M 426.535156 174.726562 C 428.980469 174.726562 430.855469 175.699219 432.152344 177.636719 C 433.445312 179.578125 434.089844 182.390625 434.09375 186.078125 C 434.089844 189.761719 433.445312 192.574219 432.152344 194.511719 C 430.855469 196.449219 428.980469 197.414062 426.535156 197.417969 C 424.082031 197.414062 422.210938 196.449219 420.917969 194.511719 C 419.621094 192.574219 418.972656 189.761719 418.976562 186.078125 C 418.972656 182.390625 419.621094 179.578125 420.917969 177.636719 C 422.210938 175.699219 424.082031 174.726562 426.535156 174.726562 Z M 0 169.144531 "/>
<path style=" stroke:none;fill-rule:nonzero;fill:rgb(0%,0%,100%);fill-opacity:1;" d="M 99.320312 234.871094 L 99.320312 237.992188 C 98.320312 237.066406 97.261719 236.375 96.136719 235.914062 C 95.007812 235.457031 93.808594 235.226562 92.539062 235.222656 C 90.039062 235.226562 88.125 235.988281 86.796875 237.515625 C 85.46875 239.046875 84.804688 241.257812 84.804688 244.144531 C 84.804688 247.027344 85.46875 249.230469 86.796875 250.757812 C 88.125 252.289062 90.039062 253.054688 92.539062 253.050781 C 93.808594 253.054688 95.007812 252.824219 96.136719 252.363281 C 97.261719 251.90625 98.320312 251.214844 99.320312 250.285156 L 99.320312 253.375 C 98.28125 254.082031 97.1875 254.609375 96.03125 254.957031 C 94.875 255.308594 93.652344 255.480469 92.363281 255.484375 C 89.050781 255.480469 86.441406 254.46875 84.539062 252.445312 C 82.632812 250.417969 81.679688 247.652344 81.683594 244.144531 C 81.679688 240.632812 82.632812 237.863281 84.539062 235.832031 C 86.441406 233.808594 89.050781 232.792969 92.363281 232.792969 C 93.671875 232.792969 94.902344 232.96875 96.0625 233.3125 C 97.214844 233.664062 98.300781 234.183594 99.320312 234.871094 Z M 117.464844 245.15625 L 117.464844 255.058594 L 114.769531 255.058594 L 114.769531 245.246094 C 114.769531 243.695312 114.464844 242.53125 113.859375 241.757812 C 113.253906 240.988281 112.347656 240.605469 111.136719 240.601562 C 109.679688 240.605469 108.53125 241.066406 107.691406 241.992188 C 106.851562 242.921875 106.429688 244.1875 106.433594 245.785156 L 106.433594 255.058594 L 103.726562 255.058594 L 103.726562 232.265625 L 106.433594 232.265625 L 106.433594 241.199219 C 107.074219 240.21875 107.835938 239.480469 108.710938 238.992188 C 109.585938 238.503906 110.59375 238.261719 111.738281 238.257812 C 113.617188 238.261719 115.042969 238.84375 116.011719 240.007812 C 116.980469 241.175781 117.464844 242.890625 117.464844 245.15625 Z M 122.828125 238.652344 L 125.523438 238.652344 L 125.523438 255.058594 L 122.828125 255.058594 Z M 122.828125 232.265625 L 125.523438 232.265625 L 125.523438 235.679688 L 122.828125 235.679688 Z M 130.828125 232.265625 L 133.523438 232.265625 L 133.523438 255.058594 L 130.828125 255.058594 Z M 149.625 241.144531 L 149.625 232.265625 L 152.320312 232.265625 L 152.320312 255.058594 L 149.625 255.058594 L 149.625 252.597656 C 149.054688 253.574219 148.339844 254.300781 147.476562 254.773438 C 146.609375 255.246094 145.570312 255.480469 144.363281 255.484375 C 142.378906 255.480469 140.765625 254.691406 139.523438 253.113281 C 138.273438 251.53125 137.652344 249.453125 137.65625 246.871094 C 137.652344 244.296875 138.273438 242.214844 139.523438 240.632812 C 140.765625 239.050781 142.378906 238.261719 144.363281 238.257812 C 145.570312 238.261719 146.609375 238.496094 147.476562 238.96875 C 148.339844 239.441406 149.054688 240.167969 149.625 241.144531 Z M 140.4375 246.871094 C 140.433594 248.855469 140.84375 250.410156 141.660156 251.535156 C 142.472656 252.667969 143.59375 253.230469 145.023438 253.226562 C 146.449219 253.230469 147.570312 252.667969 148.394531 251.535156 C 149.210938 250.410156 149.621094 248.855469 149.625 246.871094 C 149.621094 244.890625 149.210938 243.332031 148.394531 242.203125 C 147.570312 241.078125 146.449219 240.515625 145.023438 240.511719 C 143.59375 240.515625 142.472656 241.078125 141.660156 242.203125 C 140.84375 243.332031 140.433594 244.890625 140.4375 246.871094 Z M 167.335938 241.171875 C 167.027344 241 166.699219 240.871094 166.34375 240.785156 C 165.988281 240.703125 165.59375 240.664062 165.164062 240.660156 C 163.640625 240.664062 162.472656 241.160156 161.65625 242.148438 C 160.839844 243.140625 160.429688 244.5625 160.433594 246.417969 L 160.433594 255.058594 L 157.726562 255.058594 L 157.726562 238.652344 L 160.433594 238.652344 L 160.433594 241.199219 C 160.996094 240.207031 161.734375 239.46875 162.644531 238.984375 C 163.550781 238.503906 164.65625 238.261719 165.957031 238.257812 C 166.140625 238.261719 166.34375 238.273438 166.570312 238.296875 C 166.792969 238.324219 167.042969 238.359375 167.320312 238.402344 Z M 183.859375 246.183594 L 183.859375 247.5 L 171.46875 247.5 C 171.582031 249.359375 172.140625 250.773438 173.144531 251.742188 C 174.144531 252.714844 175.539062 253.203125 177.328125 253.199219 C 178.359375 253.203125 179.363281 253.074219 180.335938 252.820312 C 181.308594 252.566406 182.273438 252.1875 183.230469 251.675781 L 183.230469 254.222656 C 182.261719 254.636719 181.269531 254.945312 180.257812 255.160156 C 179.238281 255.371094 178.207031 255.480469 177.164062 255.484375 C 174.546875 255.480469 172.476562 254.722656 170.949219 253.199219 C 169.417969 251.679688 168.652344 249.617188 168.65625 247.015625 C 168.652344 244.332031 169.378906 242.203125 170.832031 240.625 C 172.28125 239.050781 174.234375 238.261719 176.695312 238.257812 C 178.902344 238.261719 180.648438 238.972656 181.933594 240.390625 C 183.214844 241.8125 183.855469 243.742188 183.859375 246.183594 Z M 181.164062 245.390625 C 181.140625 243.917969 180.730469 242.742188 179.925781 241.863281 C 179.121094 240.984375 178.054688 240.546875 176.726562 240.542969 C 175.21875 240.546875 174.011719 240.96875 173.113281 241.816406 C 172.207031 242.667969 171.6875 243.867188 171.554688 245.40625 Z M 201.464844 245.15625 L 201.464844 255.058594 L 198.769531 255.058594 L 198.769531 245.246094 C 198.769531 243.695312 198.464844 242.53125 197.859375 241.757812 C 197.253906 240.988281 196.347656 240.605469 195.136719 240.601562 C 193.679688 240.605469 192.53125 241.066406 191.691406 241.992188 C 190.851562 242.921875 190.429688 244.1875 190.433594 245.785156 L 190.433594 255.058594 L 187.726562 255.058594 L 187.726562 238.652344 L 190.433594 238.652344 L 190.433594 241.199219 C 191.074219 240.21875 191.835938 239.480469 192.710938 238.992188 C 193.585938 238.503906 194.59375 238.261719 195.738281 238.257812 C 197.617188 238.261719 199.042969 238.84375 200.011719 240.007812 C 200.980469 241.175781 201.464844 242.890625 201.464844 245.15625 Z M 216.945312 233.1875 L 229.511719 233.1875 L 229.511719 235.679688 L 219.902344 235.679688 L 219.902344 242.125 L 228.574219 242.125 L 228.574219 244.613281 L 219.902344 244.613281 L 219.902344 255.058594 L 216.945312 255.058594 Z M 246.859375 246.183594 L 246.859375 247.5 L 234.46875 247.5 C 234.582031 249.359375 235.140625 250.773438 236.144531 251.742188 C 237.144531 252.714844 238.539062 253.203125 240.328125 253.199219 C 241.359375 253.203125 242.363281 253.074219 243.335938 252.820312 C 244.308594 252.566406 245.273438 252.1875 246.230469 251.675781 L 246.230469 254.222656 C 245.261719 254.636719 244.269531 254.945312 243.257812 255.160156 C 242.238281 255.371094 241.207031 255.480469 240.164062 255.484375 C 237.546875 255.480469 235.476562 254.722656 233.949219 253.199219 C 232.417969 251.679688 231.652344 249.617188 231.65625 247.015625 C 231.652344 244.332031 232.378906 242.203125 233.832031 240.625 C 235.28125 239.050781 237.234375 238.261719 239.695312 238.257812 C 241.902344 238.261719 243.648438 238.972656 244.933594 240.390625 C 246.214844 241.8125 246.855469 243.742188 246.859375 246.183594 Z M 244.164062 245.390625 C 244.140625 243.917969 243.730469 242.742188 242.925781 241.863281 C 242.121094 240.984375 241.054688 240.546875 239.726562 240.542969 C 238.21875 240.546875 237.011719 240.96875 236.113281 241.816406 C 235.207031 242.667969 234.6875 243.867188 234.554688 245.40625 Z M 261.625 241.144531 L 261.625 232.265625 L 264.320312 232.265625 L 264.320312 255.058594 L 261.625 255.058594 L 261.625 252.597656 C 261.054688 253.574219 260.339844 254.300781 259.476562 254.773438 C 258.609375 255.246094 257.570312 255.480469 256.363281 255.484375 C 254.378906 255.480469 252.765625 254.691406 251.523438 253.113281 C 250.273438 251.53125 249.652344 249.453125 249.65625 246.871094 C 249.652344 244.296875 250.273438 242.214844 251.523438 240.632812 C 252.765625 239.050781 254.378906 238.261719 256.363281 238.257812 C 257.570312 238.261719 258.609375 238.496094 259.476562 238.96875 C 260.339844 239.441406 261.054688 240.167969 261.625 241.144531 Z M 252.4375 246.871094 C 252.433594 248.855469 252.84375 250.410156 253.660156 251.535156 C 254.472656 252.667969 255.59375 253.230469 257.023438 253.226562 C 258.449219 253.230469 259.570312 252.667969 260.394531 251.535156 C 261.210938 250.410156 261.621094 248.855469 261.625 246.871094 C 261.621094 244.890625 261.210938 243.332031 260.394531 242.203125 C 259.570312 241.078125 258.449219 240.515625 257.023438 240.511719 C 255.59375 240.515625 254.472656 241.078125 253.660156 242.203125 C 252.84375 243.332031 252.433594 244.890625 252.4375 246.871094 Z M 270.515625 251.339844 L 273.605469 251.339844 L 273.605469 255.058594 L 270.515625 255.058594 Z M 270.515625 239.546875 L 273.605469 239.546875 L 273.605469 243.265625 L 270.515625 243.265625 Z M 296.535156 235.136719 C 295.007812 235.136719 293.863281 235.886719 293.101562 237.386719 C 292.332031 238.886719 291.949219 241.140625 291.953125 244.144531 C 291.949219 247.148438 292.332031 249.398438 293.101562 250.894531 C 293.863281 252.394531 295.007812 253.144531 296.535156 253.140625 C 298.066406 253.144531 299.21875 252.394531 299.984375 250.894531 C 300.75 249.398438 301.132812 247.148438 301.136719 244.144531 C 301.132812 241.140625 300.75 238.886719 299.984375 237.386719 C 299.21875 235.886719 298.066406 235.136719 296.535156 235.136719 Z M 296.535156 232.792969 C 298.980469 232.792969 300.855469 233.765625 302.152344 235.703125 C 303.445312 237.644531 304.089844 240.457031 304.09375 244.144531 C 304.089844 247.828125 303.445312 250.640625 302.152344 252.578125 C 300.855469 254.515625 298.980469 255.480469 296.535156 255.484375 C 294.082031 255.480469 292.210938 254.515625 290.917969 252.578125 C 289.621094 250.640625 288.972656 247.828125 288.976562 244.144531 C 288.972656 240.457031 289.621094 237.644531 290.917969 235.703125 C 292.210938 233.765625 294.082031 232.792969 296.535156 232.792969 Z M 0 227.210938 "/>
<path style=" stroke:none;fill-rule:nonzero;fill:rgb(0%,0%,100%);fill-opacity:1;" d="M 90.253906 294.171875 L 86.242188 305.054688 L 94.28125 305.054688 Z M 88.585938 291.253906 L 91.9375 291.253906 L 100.273438 313.125 L 97.195312 313.125 L 95.203125 307.515625 L 85.347656 307.515625 L 83.355469 313.125 L 80.234375 313.125 Z M 117.464844 303.222656 L 117.464844 313.125 L 114.769531 313.125 L 114.769531 303.3125 C 114.769531 301.761719 114.464844 300.597656 113.859375 299.824219 C 113.253906 299.054688 112.347656 298.671875 111.136719 298.667969 C 109.679688 298.671875 108.53125 299.132812 107.691406 300.058594 C 106.851562 300.988281 106.429688 302.253906 106.433594 303.851562 L 106.433594 313.125 L 103.726562 313.125 L 103.726562 296.71875 L 106.433594 296.71875 L 106.433594 299.265625 C 107.074219 298.285156 107.835938 297.546875 108.710938 297.058594 C 109.585938 296.570312 110.59375 296.328125 111.738281 296.324219 C 113.617188 296.328125 115.042969 296.910156 116.011719 298.074219 C 116.980469 299.242188 117.464844 300.957031 117.464844 303.222656 Z M 122.828125 296.71875 L 125.523438 296.71875 L 125.523438 313.125 L 122.828125 313.125 Z M 122.828125 290.332031 L 125.523438 290.332031 L 125.523438 293.746094 L 122.828125 293.746094 Z M 143.601562 299.867188 C 144.269531 298.660156 145.074219 297.765625 146.015625 297.1875 C 146.949219 296.613281 148.054688 296.328125 149.328125 296.324219 C 151.035156 296.328125 152.351562 296.925781 153.28125 298.121094 C 154.207031 299.320312 154.671875 301.019531 154.675781 303.222656 L 154.675781 313.125 L 151.964844 313.125 L 151.964844 303.3125 C 151.964844 301.742188 151.683594 300.574219 151.128906 299.8125 C 150.570312 299.050781 149.722656 298.671875 148.582031 298.667969 C 147.179688 298.671875 146.074219 299.132812 145.269531 300.058594 C 144.457031 300.988281 144.054688 302.253906 144.054688 303.851562 L 144.054688 313.125 L 141.34375 313.125 L 141.34375 303.3125 C 141.339844 301.730469 141.0625 300.5625 140.507812 299.804688 C 139.949219 299.050781 139.089844 298.671875 137.929688 298.667969 C 136.550781 298.671875 135.457031 299.136719 134.648438 300.066406 C 133.835938 301 133.429688 302.261719 133.433594 303.851562 L 133.433594 313.125 L 130.726562 313.125 L 130.726562 296.71875 L 133.433594 296.71875 L 133.433594 299.265625 C 134.046875 298.265625 134.785156 297.523438 135.648438 297.042969 C 136.503906 296.566406 137.523438 296.328125 138.707031 296.324219 C 139.894531 296.328125 140.910156 296.628906 141.746094 297.234375 C 142.582031 297.839844 143.199219 298.71875 143.601562 299.867188 Z M 167.28125 304.878906 C 165.101562 304.882812 163.59375 305.128906 162.753906 305.625 C 161.914062 306.125 161.492188 306.976562 161.496094 308.171875 C 161.492188 309.132812 161.808594 309.890625 162.441406 310.453125 C 163.070312 311.015625 163.925781 311.296875 165.011719 311.292969 C 166.503906 311.296875 167.703125 310.769531 168.609375 309.707031 C 169.507812 308.652344 169.960938 307.242188 169.964844 305.476562 L 169.964844 304.878906 Z M 172.660156 303.765625 L 172.660156 313.125 L 169.964844 313.125 L 169.964844 310.632812 C 169.34375 311.632812 168.578125 312.367188 167.664062 312.839844 C 166.746094 313.3125 165.621094 313.546875 164.296875 313.550781 C 162.609375 313.546875 161.273438 313.078125 160.285156 312.136719 C 159.292969 311.195312 158.796875 309.933594 158.800781 308.351562 C 158.796875 306.507812 159.414062 305.117188 160.652344 304.175781 C 161.886719 303.242188 163.730469 302.773438 166.183594 302.769531 L 169.964844 302.769531 L 169.964844 302.503906 C 169.960938 301.265625 169.550781 300.308594 168.738281 299.628906 C 167.917969 298.953125 166.773438 298.613281 165.304688 298.609375 C 164.363281 298.613281 163.453125 298.722656 162.566406 298.945312 C 161.675781 299.171875 160.820312 299.511719 160.003906 299.957031 L 160.003906 297.464844 C 160.988281 297.085938 161.945312 296.800781 162.875 296.609375 C 163.800781 296.421875 164.703125 296.328125 165.585938 296.324219 C 167.953125 296.328125 169.726562 296.941406 170.902344 298.171875 C 172.070312 299.402344 172.65625 301.269531 172.660156 303.765625 Z M 177.828125 290.332031 L 180.523438 290.332031 L 180.523438 313.125 L 177.828125 313.125 Z M 196.285156 297.203125 L 196.285156 299.75 C 195.519531 299.363281 194.730469 299.070312 193.914062 298.871094 C 193.089844 298.679688 192.238281 298.582031 191.363281 298.578125 C 190.023438 298.582031 189.023438 298.789062 188.355469 299.195312 C 187.683594 299.609375 187.347656 300.222656 187.351562 301.039062 C 187.347656 301.667969 187.585938 302.160156 188.066406 302.511719 C 188.542969 302.871094 189.503906 303.210938 190.953125 303.53125 L 191.875 303.734375 C 193.789062 304.148438 195.148438 304.726562 195.957031 305.472656 C 196.757812 306.222656 197.160156 307.265625 197.164062 308.597656 C 197.160156 310.125 196.558594 311.332031 195.355469 312.21875 C 194.148438 313.105469 192.492188 313.546875 190.382812 313.550781 C 189.5 313.546875 188.582031 313.460938 187.632812 313.292969 C 186.679688 313.125 185.675781 312.871094 184.625 312.523438 L 184.625 309.742188 C 185.617188 310.261719 186.601562 310.648438 187.570312 310.90625 C 188.535156 311.167969 189.492188 311.296875 190.441406 311.292969 C 191.707031 311.296875 192.683594 311.082031 193.371094 310.644531 C 194.054688 310.214844 194.394531 309.601562 194.398438 308.804688 C 194.394531 308.074219 194.148438 307.511719 193.65625 307.117188 C 193.160156 306.730469 192.078125 306.355469 190.414062 305.992188 L 189.476562 305.773438 C 187.800781 305.421875 186.59375 304.882812 185.855469 304.152344 C 185.109375 303.429688 184.738281 302.429688 184.742188 301.15625 C 184.738281 299.617188 185.285156 298.425781 186.382812 297.585938 C 187.472656 296.746094 189.027344 296.328125 191.042969 296.324219 C 192.035156 296.328125 192.972656 296.398438 193.851562 296.542969 C 194.730469 296.691406 195.539062 296.914062 196.285156 297.203125 Z M 211.945312 291.253906 L 224.511719 291.253906 L 224.511719 293.746094 L 214.902344 293.746094 L 214.902344 300.191406 L 223.574219 300.191406 L 223.574219 302.679688 L 214.902344 302.679688 L 214.902344 313.125 L 211.945312 313.125 Z M 241.859375 304.25 L 241.859375 305.566406 L 229.46875 305.566406 C 229.582031 307.425781 230.140625 308.839844 231.144531 309.808594 C 232.144531 310.78125 233.539062 311.269531 235.328125 311.265625 C 236.359375 311.269531 237.363281 311.140625 238.335938 310.886719 C 239.308594 310.632812 240.273438 310.253906 241.230469 309.742188 L 241.230469 312.289062 C 240.261719 312.703125 239.269531 313.011719 238.257812 313.226562 C 237.238281 313.4375 236.207031 313.546875 235.164062 313.550781 C 232.546875 313.546875 230.476562 312.789062 228.949219 311.265625 C 227.417969 309.746094 226.652344 307.683594 226.65625 305.082031 C 226.652344 302.398438 227.378906 300.269531 228.832031 298.691406 C 230.28125 297.117188 232.234375 296.328125 234.695312 296.324219 C 236.902344 296.328125 238.648438 297.039062 239.933594 298.457031 C 241.214844 299.878906 241.855469 301.808594 241.859375 304.25 Z M 239.164062 303.457031 C 239.140625 301.984375 238.730469 300.808594 237.925781 299.929688 C 237.121094 299.050781 236.054688 298.613281 234.726562 298.609375 C 233.21875 298.613281 232.011719 299.035156 231.113281 299.882812 C 230.207031 300.734375 229.6875 301.933594 229.554688 303.472656 Z M 256.625 299.210938 L 256.625 290.332031 L 259.320312 290.332031 L 259.320312 313.125 L 256.625 313.125 L 256.625 310.664062 C 256.054688 311.640625 255.339844 312.367188 254.476562 312.839844 C 253.609375 313.3125 252.570312 313.546875 251.363281 313.550781 C 249.378906 313.546875 247.765625 312.757812 246.523438 311.179688 C 245.273438 309.597656 244.652344 307.519531 244.65625 304.9375 C 244.652344 302.363281 245.273438 300.28125 246.523438 298.699219 C 247.765625 297.117188 249.378906 296.328125 251.363281 296.324219 C 252.570312 296.328125 253.609375 296.5625 254.476562 297.035156 C 255.339844 297.507812 256.054688 298.234375 256.625 299.210938 Z M 247.4375 304.9375 C 247.433594 306.921875 247.84375 308.476562 248.660156 309.601562 C 249.472656 310.734375 250.59375 311.296875 252.023438 311.292969 C 253.449219 311.296875 254.570312 310.734375 255.394531 309.601562 C 256.210938 308.476562 256.621094 306.921875 256.625 304.9375 C 256.621094 302.957031 256.210938 301.398438 255.394531 300.269531 C 254.570312 299.144531 253.449219 298.582031 252.023438 298.578125 C 250.59375 298.582031 249.472656 299.144531 248.660156 300.269531 C 247.84375 301.398438 247.433594 302.957031 247.4375 304.9375 Z M 265.515625 309.40625 L 268.605469 309.40625 L 268.605469 313.125 L 265.515625 313.125 Z M 265.515625 297.613281 L 268.605469 297.613281 L 268.605469 301.332031 L 265.515625 301.332031 Z M 291.535156 293.203125 C 290.007812 293.203125 288.863281 293.953125 288.101562 295.453125 C 287.332031 296.953125 286.949219 299.207031 286.953125 302.210938 C 286.949219 305.214844 287.332031 307.464844 288.101562 308.960938 C 288.863281 310.460938 290.007812 311.210938 291.535156 311.207031 C 293.066406 311.210938 294.21875 310.460938 294.984375 308.960938 C 295.75 307.464844 296.132812 305.214844 296.136719 302.210938 C 296.132812 299.207031 295.75 296.953125 294.984375 295.453125 C 294.21875 293.953125 293.066406 293.203125 291.535156 293.203125 Z M 291.535156 290.859375 C 293.980469 290.859375 295.855469 291.832031 297.152344 293.769531 C 298.445312 295.710938 299.089844 298.523438 299.09375 302.210938 C 299.089844 305.894531 298.445312 308.707031 297.152344 310.644531 C 295.855469 312.582031 293.980469 313.546875 291.535156 313.550781 C 289.082031 313.546875 287.210938 312.582031 285.917969 310.644531 C 284.621094 308.707031 283.972656 305.894531 283.976562 302.210938 C 283.972656 298.523438 284.621094 295.710938 285.917969 293.769531 C 287.210938 291.832031 289.082031 290.859375 291.535156 290.859375 Z M 0 285.277344 "/>
<path style=" stroke:none;fill-rule:nonzero;fill:rgb(0%,0%,100%);fill-opacity:1;" d="M 79.914062 349.320312 L 98.414062 349.320312 L 98.414062 351.8125 L 90.648438 351.8125 L 90.648438 371.191406 L 87.675781 371.191406 L 87.675781 351.8125 L 79.914062 351.8125 Z M 106.335938 357.304688 C 106.027344 357.132812 105.699219 357.003906 105.34375 356.917969 C 104.988281 356.835938 104.59375 356.796875 104.164062 356.792969 C 102.640625 356.796875 101.472656 357.292969 100.65625 358.28125 C 99.839844 359.273438 99.429688 360.695312 99.433594 362.550781 L 99.433594 371.191406 L 96.726562 371.191406 L 96.726562 354.785156 L 99.433594 354.785156 L 99.433594 357.332031 C 99.996094 356.339844 100.734375 355.601562 101.644531 355.117188 C 102.550781 354.636719 103.65625 354.394531 104.957031 354.390625 C 105.140625 354.394531 105.34375 354.40625 105.570312 354.429688 C 105.792969 354.457031 106.042969 354.492188 106.320312 354.535156 Z M 122.859375 362.316406 L 122.859375 363.632812 L 110.46875 363.632812 C 110.582031 365.492188 111.140625 366.90625 112.144531 367.875 C 113.144531 368.847656 114.539062 369.335938 116.328125 369.332031 C 117.359375 369.335938 118.363281 369.207031 119.335938 368.953125 C 120.308594 368.699219 121.273438 368.320312 122.230469 367.808594 L 122.230469 370.355469 C 121.261719 370.769531 120.269531 371.078125 119.257812 371.292969 C 118.238281 371.503906 117.207031 371.613281 116.164062 371.617188 C 113.546875 371.613281 111.476562 370.855469 109.949219 369.332031 C 108.417969 367.8125 107.652344 365.75 107.65625 363.148438 C 107.652344 360.464844 108.378906 358.335938 109.832031 356.757812 C 111.28125 355.183594 113.234375 354.394531 115.695312 354.390625 C 117.902344 354.394531 119.648438 355.105469 120.933594 356.523438 C 122.214844 357.945312 122.855469 359.875 122.859375 362.316406 Z M 120.164062 361.523438 C 120.140625 360.050781 119.730469 358.875 118.925781 357.996094 C 118.121094 357.117188 117.054688 356.679688 115.726562 356.675781 C 114.21875 356.679688 113.011719 357.101562 112.113281 357.949219 C 111.207031 358.800781 110.6875 360 110.554688 361.539062 Z M 140.859375 362.316406 L 140.859375 363.632812 L 128.46875 363.632812 C 128.582031 365.492188 129.140625 366.90625 130.144531 367.875 C 131.144531 368.847656 132.539062 369.335938 134.328125 369.332031 C 135.359375 369.335938 136.363281 369.207031 137.335938 368.953125 C 138.308594 368.699219 139.273438 368.320312 140.230469 367.808594 L 140.230469 370.355469 C 139.261719 370.769531 138.269531 371.078125 137.257812 371.292969 C 136.238281 371.503906 135.207031 371.613281 134.164062 371.617188 C 131.546875 371.613281 129.476562 370.855469 127.949219 369.332031 C 126.417969 367.8125 125.652344 365.75 125.65625 363.148438 C 125.652344 360.464844 126.378906 358.335938 127.832031 356.757812 C 129.28125 355.183594 131.234375 354.394531 133.695312 354.390625 C 135.902344 354.394531 137.648438 355.105469 138.933594 356.523438 C 140.214844 357.945312 140.855469 359.875 140.859375 362.316406 Z M 138.164062 361.523438 C 138.140625 360.050781 137.730469 358.875 136.925781 357.996094 C 136.121094 357.117188 135.054688 356.679688 133.726562 356.675781 C 132.21875 356.679688 131.011719 357.101562 130.113281 357.949219 C 129.207031 358.800781 128.6875 360 128.554688 361.539062 Z M 155.285156 355.269531 L 155.285156 357.816406 C 154.519531 357.429688 153.730469 357.136719 152.914062 356.9375 C 152.089844 356.746094 151.238281 356.648438 150.363281 356.644531 C 149.023438 356.648438 148.023438 356.855469 147.355469 357.261719 C 146.683594 357.675781 146.347656 358.289062 146.351562 359.105469 C 146.347656 359.734375 146.585938 360.226562 147.066406 360.578125 C 147.542969 360.9375 148.503906 361.277344 149.953125 361.597656 L 150.875 361.800781 C 152.789062 362.214844 154.148438 362.792969 154.957031 363.539062 C 155.757812 364.289062 156.160156 365.332031 156.164062 366.664062 C 156.160156 368.191406 155.558594 369.398438 154.355469 370.285156 C 153.148438 371.171875 151.492188 371.613281 149.382812 371.617188 C 148.5 371.613281 147.582031 371.527344 146.632812 371.359375 C 145.679688 371.191406 144.675781 370.9375 143.625 370.589844 L 143.625 367.808594 C 144.617188 368.328125 145.601562 368.714844 146.570312 368.972656 C 147.535156 369.234375 148.492188 369.363281 149.441406 369.359375 C 150.707031 369.363281 151.683594 369.148438 152.371094 368.710938 C 153.054688 368.28125 153.394531 367.667969 153.398438 366.871094 C 153.394531 366.140625 153.148438 365.578125 152.65625 365.183594 C 152.160156 364.796875 151.078125 364.421875 149.414062 364.058594 L 148.476562 363.839844 C 146.800781 363.488281 145.59375 362.949219 144.855469 362.21875 C 144.109375 361.496094 143.738281 360.496094 143.742188 359.222656 C 143.738281 357.683594 144.285156 356.492188 145.382812 355.652344 C 146.472656 354.8125 148.027344 354.394531 150.042969 354.390625 C 151.035156 354.394531 151.972656 354.464844 152.851562 354.609375 C 153.730469 354.757812 154.539062 354.980469 155.285156 355.269531 Z M 173.902344 351.753906 L 173.902344 359.972656 L 177.625 359.972656 C 178.996094 359.976562 180.058594 359.621094 180.816406 358.902344 C 181.566406 358.191406 181.945312 357.175781 181.945312 355.855469 C 181.945312 354.550781 181.566406 353.539062 180.816406 352.824219 C 180.058594 352.113281 178.996094 351.757812 177.625 351.753906 Z M 170.945312 349.320312 L 177.625 349.320312 C 180.074219 349.324219 181.925781 349.878906 183.183594 350.984375 C 184.433594 352.09375 185.0625 353.71875 185.066406 355.855469 C 185.0625 358.015625 184.433594 359.644531 183.183594 360.746094 C 181.925781 361.851562 180.074219 362.402344 177.625 362.402344 L 173.902344 362.402344 L 173.902344 371.191406 L 170.945312 371.191406 Z M 188.828125 348.398438 L 191.523438 348.398438 L 191.523438 371.191406 L 188.828125 371.191406 Z M 204.28125 362.945312 C 202.101562 362.949219 200.59375 363.195312 199.753906 363.691406 C 198.914062 364.191406 198.492188 365.042969 198.496094 366.238281 C 198.492188 367.199219 198.808594 367.957031 199.441406 368.519531 C 200.070312 369.082031 200.925781 369.363281 202.011719 369.359375 C 203.503906 369.363281 204.703125 368.835938 205.609375 367.773438 C 206.507812 366.71875 206.960938 365.308594 206.964844 363.542969 L 206.964844 362.945312 Z M 209.660156 361.832031 L 209.660156 371.191406 L 206.964844 371.191406 L 206.964844 368.699219 C 206.34375 369.699219 205.578125 370.433594 204.664062 370.90625 C 203.746094 371.378906 202.621094 371.613281 201.296875 371.617188 C 199.609375 371.613281 198.273438 371.144531 197.285156 370.203125 C 196.292969 369.261719 195.796875 368 195.800781 366.417969 C 195.796875 364.574219 196.414062 363.183594 197.652344 362.242188 C 198.886719 361.308594 200.730469 360.839844 203.183594 360.835938 L 206.964844 360.835938 L 206.964844 360.570312 C 206.960938 359.332031 206.550781 358.375 205.738281 357.695312 C 204.917969 357.019531 203.773438 356.679688 202.304688 356.675781 C 201.363281 356.679688 200.453125 356.789062 199.566406 357.011719 C 198.675781 357.238281 197.820312 357.578125 197.003906 358.023438 L 197.003906 355.53125 C 197.988281 355.152344 198.945312 354.867188 199.875 354.675781 C 200.800781 354.488281 201.703125 354.394531 202.585938 354.390625 C 204.953125 354.394531 206.726562 355.007812 207.902344 356.238281 C 209.070312 357.46875 209.65625 359.335938 209.660156 361.832031 Z M 228.464844 361.289062 L 228.464844 371.191406 L 225.769531 371.191406 L 225.769531 361.378906 C 225.769531 359.828125 225.464844 358.664062 224.859375 357.890625 C 224.253906 357.121094 223.347656 356.738281 222.136719 356.734375 C 220.679688 356.738281 219.53125 357.199219 218.691406 358.125 C 217.851562 359.054688 217.429688 360.320312 217.433594 361.917969 L 217.433594 371.191406 L 214.726562 371.191406 L 214.726562 354.785156 L 217.433594 354.785156 L 217.433594 357.332031 C 218.074219 356.351562 218.835938 355.613281 219.710938 355.125 C 220.585938 354.636719 221.59375 354.394531 222.738281 354.390625 C 224.617188 354.394531 226.042969 354.976562 227.011719 356.140625 C 227.980469 357.308594 228.464844 359.023438 228.464844 361.289062 Z M 236.492188 350.128906 L 236.492188 354.785156 L 242.046875 354.785156 L 242.046875 356.878906 L 236.492188 356.878906 L 236.492188 365.785156 C 236.488281 367.125 236.671875 367.984375 237.042969 368.363281 C 237.40625 368.746094 238.152344 368.9375 239.277344 368.933594 L 242.046875 368.933594 L 242.046875 371.191406 L 239.277344 371.191406 C 237.195312 371.191406 235.757812 370.804688 234.96875 370.027344 C 234.171875 369.253906 233.777344 367.839844 233.78125 365.785156 L 233.78125 356.878906 L 231.804688 356.878906 L 231.804688 354.785156 L 233.78125 354.785156 L 233.78125 350.128906 Z M 259.859375 362.316406 L 259.859375 363.632812 L 247.46875 363.632812 C 247.582031 365.492188 248.140625 366.90625 249.144531 367.875 C 250.144531 368.847656 251.539062 369.335938 253.328125 369.332031 C 254.359375 369.335938 255.363281 369.207031 256.335938 368.953125 C 257.308594 368.699219 258.273438 368.320312 259.230469 367.808594 L 259.230469 370.355469 C 258.261719 370.769531 257.269531 371.078125 256.257812 371.292969 C 255.238281 371.503906 254.207031 371.613281 253.164062 371.617188 C 250.546875 371.613281 248.476562 370.855469 246.949219 369.332031 C 245.417969 367.8125 244.652344 365.75 244.65625 363.148438 C 244.652344 360.464844 245.378906 358.335938 246.832031 356.757812 C 248.28125 355.183594 250.234375 354.394531 252.695312 354.390625 C 254.902344 354.394531 256.648438 355.105469 257.933594 356.523438 C 259.214844 357.945312 259.855469 359.875 259.859375 362.316406 Z M 257.164062 361.523438 C 257.140625 360.050781 256.730469 358.875 255.925781 357.996094 C 255.121094 357.117188 254.054688 356.679688 252.726562 356.675781 C 251.21875 356.679688 250.011719 357.101562 249.113281 357.949219 C 248.207031 358.800781 247.6875 360 247.554688 361.539062 Z M 274.625 357.277344 L 274.625 348.398438 L 277.320312 348.398438 L 277.320312 371.191406 L 274.625 371.191406 L 274.625 368.730469 C 274.054688 369.707031 273.339844 370.433594 272.476562 370.90625 C 271.609375 371.378906 270.570312 371.613281 269.363281 371.617188 C 267.378906 371.613281 265.765625 370.824219 264.523438 369.246094 C 263.273438 367.664062 262.652344 365.585938 262.65625 363.003906 C 262.652344 360.429688 263.273438 358.347656 264.523438 356.765625 C 265.765625 355.183594 267.378906 354.394531 269.363281 354.390625 C 270.570312 354.394531 271.609375 354.628906 272.476562 355.101562 C 273.339844 355.574219 274.054688 356.300781 274.625 357.277344 Z M 265.4375 363.003906 C 265.433594 364.988281 265.84375 366.542969 266.660156 367.667969 C 267.472656 368.800781 268.59375 369.363281 270.023438 369.359375 C 271.449219 369.363281 272.570312 368.800781 273.394531 367.667969 C 274.210938 366.542969 274.621094 364.988281 274.625 363.003906 C 274.621094 361.023438 274.210938 359.464844 273.394531 358.335938 C 272.570312 357.210938 271.449219 356.648438 270.023438 356.644531 C 268.59375 356.648438 267.472656 357.210938 266.660156 358.335938 C 265.84375 359.464844 265.433594 361.023438 265.4375 363.003906 Z M 283.515625 367.472656 L 286.605469 367.472656 L 286.605469 371.191406 L 283.515625 371.191406 Z M 283.515625 355.679688 L 286.605469 355.679688 L 286.605469 359.398438 L 283.515625 359.398438 Z M 309.535156 351.269531 C 308.007812 351.269531 306.863281 352.019531 306.101562 353.519531 C 305.332031 355.019531 304.949219 357.273438 304.953125 360.277344 C 304.949219 363.28125 305.332031 365.53125 306.101562 367.027344 C 306.863281 368.527344 308.007812 369.277344 309.535156 369.273438 C 311.066406 369.277344 312.21875 368.527344 312.984375 367.027344 C 313.75 365.53125 314.132812 363.28125 314.136719 360.277344 C 314.132812 357.273438 313.75 355.019531 312.984375 353.519531 C 312.21875 352.019531 311.066406 351.269531 309.535156 351.269531 Z M 309.535156 348.925781 C 311.980469 348.925781 313.855469 349.898438 315.152344 351.835938 C 316.445312 353.777344 317.089844 356.589844 317.09375 360.277344 C 317.089844 363.960938 316.445312 366.773438 315.152344 368.710938 C 313.855469 370.648438 311.980469 371.613281 309.535156 371.617188 C 307.082031 371.613281 305.210938 370.648438 303.917969 368.710938 C 302.621094 366.773438 301.972656 363.960938 301.976562 360.277344 C 301.972656 356.589844 302.621094 353.777344 303.917969 351.835938 C 305.210938 349.898438 307.082031 348.925781 309.535156 348.925781 Z M 0 343.34375 "/>
</g>
</svg>
